<?xml version="1.0" encoding="UTF-8"?>
<svg version="1.1" xmlns="http://www.w3.org/2000/svg" width="230" height="230">
<path d="M0 0 C75.9 0 151.8 0 230 0 C230 75.9 230 151.8 230 230 C154.1 230 78.2 230 0 230 C0 154.1 0 78.2 0 0 Z " fill="#4E8D73" transform="translate(0,0)"/>
<path d="M0 0 C1.2065625 0.0309375 1.2065625 0.0309375 2.4375 0.0625 C3.4375 3.0625 3.4375 3.0625 2.5 6 C-0.19371539 9.99975921 -3.1826936 11.29393209 -7.5625 13.0625 C-6.758125 14.0525 -5.95375 15.0425 -5.125 16.0625 C-2.23567108 20.05369164 -1.81866233 23.19541572 -1.5625 28.0625 C-0.31339844 27.81886719 -0.31339844 27.81886719 0.9609375 27.5703125 C4.70827712 27.02294829 8.2764889 26.9299128 12.0625 26.9375 C13.99996094 26.93363281 13.99996094 26.93363281 15.9765625 26.9296875 C18.69976685 27.0341897 20.86666106 27.24035354 23.4375 28.0625 C23.9325 26.5775 23.9325 26.5775 24.4375 25.0625 C26.7475 24.7325 29.0575 24.4025 31.4375 24.0625 C31.4375 27.0325 31.4375 30.0025 31.4375 33.0625 C29.4575 33.3925 27.4775 33.7225 25.4375 34.0625 C26.39845632 37.07640845 27.41075715 40.07040388 28.4375 43.0625 C28.72753906 43.94808594 29.01757812 44.83367187 29.31640625 45.74609375 C31.35308079 51.48116474 32.97807163 53.99157154 38.4375 57.0625 C39.015 57.949375 39.5925 58.83625 40.1875 59.75 C43.28074482 62.92916829 45.79371215 62.66184154 50.09765625 62.7265625 C52.92632645 63.1326821 53.5755538 63.98429376 55.4375 66.0625 C56.9225 66.5575 56.9225 66.5575 58.4375 67.0625 C58.7675 68.7125 59.0975 70.3625 59.4375 72.0625 C56.5061117 73.52819415 53.55117734 73.68336218 50.3125 74.125 C48.39050781 74.38990234 48.39050781 74.38990234 46.4296875 74.66015625 C45.44226563 74.79292969 44.45484375 74.92570312 43.4375 75.0625 C44.4275 79.0225 44.4275 79.0225 45.4375 83.0625 C42.33369499 82.28654875 40.18747221 81.5356994 37.4375 80.0625 C36.9425 81.5475 36.9425 81.5475 36.4375 83.0625 C33.48085481 84.5408226 30.69520263 84.12282783 27.4375 84.0625 C27.1075 83.4025 26.7775 82.7425 26.4375 82.0625 C23.31964887 82.70894661 23.31964887 82.70894661 22.4375 85.0625 C17.29846502 86.97850519 11.30388547 86.24845673 5.91040039 86.24780273 C3.87820719 86.24999654 1.84655094 86.26819586 -0.18554688 86.28710938 C-1.46623047 86.28904297 -2.74691406 86.29097656 -4.06640625 86.29296875 C-5.82706421 86.29913208 -5.82706421 86.29913208 -7.62329102 86.30541992 C-10.5625 86.0625 -10.5625 86.0625 -13.5625 84.0625 C-13.5625 83.4025 -13.5625 82.7425 -13.5625 82.0625 C-18.1825 82.0625 -22.8025 82.0625 -27.5625 82.0625 C-27.5625 82.7225 -27.5625 83.3825 -27.5625 84.0625 C-26.9025 84.0625 -26.2425 84.0625 -25.5625 84.0625 C-25.5625 84.7225 -25.5625 85.3825 -25.5625 86.0625 C-22.2625 86.3925 -18.9625 86.7225 -15.5625 87.0625 C-17.5625 91.0625 -17.5625 91.0625 -19.3125 92.3125 C-22.29801164 93.30767055 -24.42906785 93.44618557 -27.5625 93.0625 C-30.83834369 91.09699378 -32.28308689 90.00820593 -33.375 86.3125 C-33.4678125 85.19875 -33.4678125 85.19875 -33.5625 84.0625 C-34.34625 83.918125 -35.13 83.77375 -35.9375 83.625 C-38.5625 83.0625 -38.5625 83.0625 -40.5625 82.0625 C-40.69776139 79.81415504 -40.79460804 77.56347486 -40.875 75.3125 C-40.93300781 74.05953125 -40.99101563 72.8065625 -41.05078125 71.515625 C-40.5625 68.0625 -40.5625 68.0625 -38.10546875 65.734375 C-37.26628906 65.18265625 -36.42710938 64.6309375 -35.5625 64.0625 C-35.2325 63.4025 -34.9025 62.7425 -34.5625 62.0625 C-23.3425 61.7325 -12.1225 61.4025 -0.5625 61.0625 C-1.5525 66.0125 -2.5425 70.9625 -3.5625 76.0625 C3.77513707 77.23652193 11.01915418 77.15627123 18.4375 77.0625 C18.31632812 76.51948242 18.19515625 75.97646484 18.0703125 75.41699219 C12.74071072 51.19805178 12.74071072 51.19805178 15.4375 39.0625 C16.0975 39.0625 16.7575 39.0625 17.4375 39.0625 C18.0975 36.0925 18.7575 33.1225 19.4375 30.0625 C17.7875 30.3925 16.1375 30.7225 14.4375 31.0625 C14.4375 31.7225 14.4375 32.3825 14.4375 33.0625 C11.65916251 34.45166875 9.01228729 34.56882884 5.9375 34.83984375 C3.46129493 35.02950709 3.46129493 35.02950709 1.125 35.44140625 C-2.72009531 35.86196355 -4.73322701 35.69532931 -7.87109375 33.30078125 C-12.15788551 28.80003197 -14.5625 25.33289675 -14.5625 19.0625 C-15.2225 19.0625 -15.8825 19.0625 -16.5625 19.0625 C-15.51436851 27.14808579 -11.19493856 31.40688268 -5.5625 37.0625 C-6.0575 38.0525 -6.0575 38.0525 -6.5625 39.0625 C-8.2125 38.4025 -9.8625 37.7425 -11.5625 37.0625 C-11.5625 37.7225 -11.5625 38.3825 -11.5625 39.0625 C-8.9225 39.7225 -6.2825 40.3825 -3.5625 41.0625 C-5.5625 43.0625 -5.5625 43.0625 -8.6796875 43.1796875 C-9.91976562 43.09976563 -11.15984375 43.01984375 -12.4375 42.9375 C-13.67242187 42.87304688 -14.90734375 42.80859375 -16.1796875 42.7421875 C-20.00681368 41.97322681 -21.31953887 41.2205 -23.5625 38.0625 C-24.07005847 35.28107957 -23.75278514 32.9167771 -23.5625 30.0625 C-24.2225 30.0625 -24.8825 30.0625 -25.5625 30.0625 C-25.5625 36.9925 -25.5625 43.9225 -25.5625 51.0625 C-24.9025 51.0625 -24.2425 51.0625 -23.5625 51.0625 C-23.5625 51.7225 -23.5625 52.3825 -23.5625 53.0625 C-31.4825 53.3925 -39.4025 53.7225 -47.5625 54.0625 C-44.9225 56.3725 -42.2825 58.6825 -39.5625 61.0625 C-39.8925 62.0525 -40.2225 63.0425 -40.5625 64.0625 C-41.24054688 63.35222656 -41.91859375 62.64195312 -42.6171875 61.91015625 C-47.98808336 56.60621061 -51.83835873 52.95433248 -59.76171875 52.9296875 C-60.35597656 52.97351563 -60.95023438 53.01734375 -61.5625 53.0625 C-61.5625 52.4025 -61.5625 51.7425 -61.5625 51.0625 C-60.9025 51.0625 -60.2425 51.0625 -59.5625 51.0625 C-59.5625 44.1325 -59.5625 37.2025 -59.5625 30.0625 C-60.2225 30.0625 -60.8825 30.0625 -61.5625 30.0625 C-61.5625 27.4225 -61.5625 24.7825 -61.5625 22.0625 C-48.3625 22.0625 -35.1625 22.0625 -21.5625 22.0625 C-20.9025 20.4125 -20.2425 18.7625 -19.5625 17.0625 C-19.005625 16.464375 -18.44875 15.86625 -17.875 15.25 C-15.79063499 11.77605832 -16.84591759 8.97113132 -17.5625 5.0625 C-16.56347656 4.78535156 -15.56445312 4.50820312 -14.53515625 4.22265625 C-13.23172209 3.85694451 -11.92833931 3.49104962 -10.625 3.125 C-9.96564453 2.94259766 -9.30628906 2.76019531 -8.62695312 2.57226562 C-5.55437821 1.70564193 -3.03121434 0.07393206 0 0 Z " fill="#A4BE74" transform="translate(113.5625,70.9375)"/>
<path d="M0 0 C0.33 0 0.66 0 1 0 C1 8.58 1 17.16 1 26 C1.66 26 2.32 26 3 26 C3 26.99 3 27.98 3 29 C-0.84890627 30.92445313 -5.56948065 30.47529807 -9.8125 30.71875 C-12.89422513 30.79425082 -12.89422513 30.79425082 -15 32 C-16.62429241 32.04794959 -18.25041714 32.03681774 -19.875 32 C-24.32501457 31.95831368 -28.72575692 32.07777678 -33.16723633 32.35595703 C-44.00706492 33.02529234 -54.83101576 33.11299786 -65.6875 33.125 C-66.47576172 33.12749756 -67.26402344 33.12999512 -68.07617188 33.13256836 C-89.62273504 33.18863248 -89.62273504 33.18863248 -94 31 C-96.12156123 30.79413422 -98.24768104 30.63385378 -100.375 30.5 C-104.03656971 30.26856896 -107.47339385 30.04234665 -111 29 C-111 28.01 -111 27.02 -111 26 C-108.36 26 -105.72 26 -103 26 C-103 25.34 -103 24.68 -103 24 C-102.01 23.67 -101.02 23.34 -100 23 C-100.33 20.03 -100.66 17.06 -101 14 C-99.02 13.67 -97.04 13.34 -95 13 C-94.566875 13.94875 -94.13375 14.8975 -93.6875 15.875 C-92.20697799 19.20041937 -92.20697799 19.20041937 -89 21 C-86.80962282 21.17549195 -86.80962282 21.17549195 -84.5 20.875 C-83.33984375 20.77832031 -83.33984375 20.77832031 -82.15625 20.6796875 C-79.43130114 20.05091577 -79.43130114 20.05091577 -77 16 C-80.3 15.67 -83.6 15.34 -87 15 C-87 14.34 -87 13.68 -87 13 C-87.66 13 -88.32 13 -89 13 C-89 12.34 -89 11.68 -89 11 C-86.72975032 10.91902676 -84.45867925 10.86082296 -82.1875 10.8125 C-80.29064453 10.76029297 -80.29064453 10.76029297 -78.35546875 10.70703125 C-77.24816406 10.80371094 -76.14085937 10.90039062 -75 11 C-74.38608398 11.7425 -74.38608398 11.7425 -73.75976562 12.5 C-70.99916068 14.85310166 -67.94275986 14.36869408 -64.48828125 14.29296875 C-63.76005661 14.28872391 -63.03183197 14.28447906 -62.28153992 14.28010559 C-59.95814873 14.26332733 -57.6356285 14.22567855 -55.3125 14.1875 C-53.73634066 14.17245197 -52.16016771 14.15876377 -50.58398438 14.14648438 C-46.72232123 14.11342685 -42.86130822 14.06165194 -39 14 C-38.34 12.68 -37.68 11.36 -37 10 C-36.01 10.33 -35.02 10.66 -34 11 C-34 11.66 -34 12.32 -34 13 C-32.51882199 12.71872579 -31.04006751 12.42466268 -29.5625 12.125 C-28.73878906 11.96257812 -27.91507812 11.80015625 -27.06640625 11.6328125 C-26.38449219 11.42398438 -25.70257813 11.21515625 -25 11 C-24.67 10.34 -24.34 9.68 -24 9 C-21.07120629 9.62759865 -18.63904371 10.58622659 -16 12 C-16.33 11.4225 -16.66 10.845 -17 10.25 C-18 8 -18 8 -18 4 C-14.07142246 2.14868517 -11.01224888 1.77995057 -6.6875 1.875 C-5.61886719 1.89304688 -4.55023438 1.91109375 -3.44921875 1.9296875 C-2.64097656 1.95289063 -1.83273438 1.97609375 -1 2 C-0.67 1.34 -0.34 0.68 0 0 Z " fill="#396B58" transform="translate(175,142)"/>
<path d="M0 0 C1.2065625 0.0309375 1.2065625 0.0309375 2.4375 0.0625 C3.4375 3.0625 3.4375 3.0625 2.5 6 C-0.19371539 9.99975921 -3.1826936 11.29393209 -7.5625 13.0625 C-6.758125 14.0525 -5.95375 15.0425 -5.125 16.0625 C-2.23567108 20.05369164 -1.81866233 23.19541572 -1.5625 28.0625 C-0.31726563 27.81886719 -0.31726563 27.81886719 0.953125 27.5703125 C4.74303247 27.01797173 8.35866529 26.92993313 12.1875 26.9375 C13.50234375 26.93492188 14.8171875 26.93234375 16.171875 26.9296875 C19.4375 27.0625 19.4375 27.0625 21.4375 28.0625 C21.4375 29.7125 21.4375 31.3625 21.4375 33.0625 C20.7775 32.4025 20.1175 31.7425 19.4375 31.0625 C16.85395782 30.89562552 16.85395782 30.89562552 14.4375 31.0625 C14.4375 31.7225 14.4375 32.3825 14.4375 33.0625 C11.65916251 34.45166875 9.01228729 34.56882884 5.9375 34.83984375 C3.46129493 35.02950709 3.46129493 35.02950709 1.125 35.44140625 C-2.72009531 35.86196355 -4.73322701 35.69532931 -7.87109375 33.30078125 C-12.15788551 28.80003197 -14.5625 25.33289675 -14.5625 19.0625 C-15.2225 19.0625 -15.8825 19.0625 -16.5625 19.0625 C-15.51436851 27.14808579 -11.19493856 31.40688268 -5.5625 37.0625 C-6.0575 38.0525 -6.0575 38.0525 -6.5625 39.0625 C-8.2125 38.4025 -9.8625 37.7425 -11.5625 37.0625 C-11.5625 37.7225 -11.5625 38.3825 -11.5625 39.0625 C-8.9225 39.7225 -6.2825 40.3825 -3.5625 41.0625 C-5.5625 43.0625 -5.5625 43.0625 -8.6796875 43.1796875 C-9.91976562 43.09976563 -11.15984375 43.01984375 -12.4375 42.9375 C-13.67242187 42.87304688 -14.90734375 42.80859375 -16.1796875 42.7421875 C-20.00681368 41.97322681 -21.31953887 41.2205 -23.5625 38.0625 C-24.07005847 35.28107957 -23.75278514 32.9167771 -23.5625 30.0625 C-24.2225 30.0625 -24.8825 30.0625 -25.5625 30.0625 C-25.5625 36.9925 -25.5625 43.9225 -25.5625 51.0625 C-24.9025 51.0625 -24.2425 51.0625 -23.5625 51.0625 C-23.5625 51.7225 -23.5625 52.3825 -23.5625 53.0625 C-31.4825 53.3925 -39.4025 53.7225 -47.5625 54.0625 C-44.9225 56.3725 -42.2825 58.6825 -39.5625 61.0625 C-39.8925 62.0525 -40.2225 63.0425 -40.5625 64.0625 C-41.24054688 63.35222656 -41.91859375 62.64195312 -42.6171875 61.91015625 C-47.98808336 56.60621061 -51.83835873 52.95433248 -59.76171875 52.9296875 C-60.35597656 52.97351563 -60.95023438 53.01734375 -61.5625 53.0625 C-61.5625 52.4025 -61.5625 51.7425 -61.5625 51.0625 C-60.9025 51.0625 -60.2425 51.0625 -59.5625 51.0625 C-59.5625 44.1325 -59.5625 37.2025 -59.5625 30.0625 C-60.2225 30.0625 -60.8825 30.0625 -61.5625 30.0625 C-61.5625 27.4225 -61.5625 24.7825 -61.5625 22.0625 C-48.3625 22.0625 -35.1625 22.0625 -21.5625 22.0625 C-20.9025 20.4125 -20.2425 18.7625 -19.5625 17.0625 C-19.005625 16.464375 -18.44875 15.86625 -17.875 15.25 C-15.79063499 11.77605832 -16.84591759 8.97113132 -17.5625 5.0625 C-16.56347656 4.78535156 -15.56445312 4.50820312 -14.53515625 4.22265625 C-13.23172209 3.85694451 -11.92833931 3.49104962 -10.625 3.125 C-9.96564453 2.94259766 -9.30628906 2.76019531 -8.62695312 2.57226562 C-5.55437821 1.70564193 -3.03121434 0.07393206 0 0 Z " fill="#A9BF7B" transform="translate(113.5625,70.9375)"/>
<path d="M0 0 C0.66 0 1.32 0 2 0 C2.37125 1.175625 2.7425 2.35125 3.125 3.5625 C4.88367382 8.13016673 6.95157022 12.09434361 11 15 C14.09070767 15.72297255 16.87239371 15.38731966 20 15 C22.02079801 14.83290559 24.04163161 14.6662411 26.0625 14.5 C27.70874089 14.33740831 29.35473791 14.17221435 31 14 C31 13.34 31 12.68 31 12 C33.475 11.505 33.475 11.505 36 11 C35.51421457 14.12290635 35.0013988 16.99580359 34 20 C33.34 20 32.68 20 32 20 C31.65696291 30.86284133 32.17275852 40.95962934 34.34375 51.62109375 C35 55 35 55 35 58 C28.67872943 61.16063529 19.46464219 58.98912067 13 57 C12.63736141 51.1977825 13.74315457 47.36000789 16 42 C14.97386597 42.24447876 14.97386597 42.24447876 13.92700195 42.49389648 C10.61881603 43.06590995 7.52534024 43.11244643 4.16796875 43.09765625 C2.87568359 43.09443359 1.58339844 43.09121094 0.25195312 43.08789062 C-1.10286526 43.07953665 -2.45768297 43.07107172 -3.8125 43.0625 C-5.18684735 43.05748 -6.56119645 43.05291797 -7.93554688 43.04882812 C-11.29040924 43.03705668 -14.64518221 43.02061283 -18 43 C-18.33 43.99 -18.66 44.98 -19 46 C-19.66 46 -20.32 46 -21 46 C-21.33 46.99 -21.66 47.98 -22 49 C-22.66 49 -23.32 49 -24 49 C-24 53.62 -24 58.24 -24 63 C-22.68 63.66 -21.36 64.32 -20 65 C-20 65.33 -20 65.66 -20 66 C-22.97 66 -25.94 66 -29 66 C-29.31624668 56.98696953 -26.77852116 50.08897006 -23 42 C-23.556875 41.79375 -24.11375 41.5875 -24.6875 41.375 C-27 40 -27 40 -32 34 C-23.75 34 -15.5 34 -7 34 C-7 33.34 -7 32.68 -7 32 C-7.66 32 -8.32 32 -9 32 C-9 25.07 -9 18.14 -9 11 C-8.34 11 -7.68 11 -7 11 C-6.87882812 11.71027344 -6.75765625 12.42054687 -6.6328125 13.15234375 C-6.46523437 14.07144531 -6.29765625 14.99054688 -6.125 15.9375 C-5.88136719 17.31228516 -5.88136719 17.31228516 -5.6328125 18.71484375 C-5.42398438 19.46894531 -5.21515625 20.22304687 -5 21 C-2.0384304 22.4807848 0.83506295 22.35314037 4.125 22.5625 C5.40632813 22.64628906 6.68765625 22.73007813 8.0078125 22.81640625 C8.99523437 22.87699219 9.98265625 22.93757813 11 23 C9.02 22.01 7.04 21.02 5 20 C5 19.34 5 18.68 5 18 C6.65 18.33 8.3 18.66 10 19 C9.61328125 18.56429687 9.2265625 18.12859375 8.828125 17.6796875 C0.12820513 7.73076923 0.12820513 7.73076923 -0.25 2.625 C-0.1675 1.75875 -0.085 0.8925 0 0 Z " fill="#839C67" transform="translate(97,90)"/>
<path d="M0 0 C0 2.97 0 5.94 0 9 C-1.98 9.33 -3.96 9.66 -6 10 C-5.03904368 13.01390845 -4.02674285 16.00790388 -3 19 C-2.70996094 19.88558594 -2.41992188 20.77117187 -2.12109375 21.68359375 C-0.08441921 27.41866474 1.54057163 29.92907154 7 33 C7.5775 33.886875 8.155 34.77375 8.75 35.6875 C11.84324482 38.86666829 14.35621215 38.59934154 18.66015625 38.6640625 C21.48882645 39.0701821 22.1380538 39.92179376 24 42 C24.99 42.33 25.98 42.66 27 43 C27.495 45.475 27.495 45.475 28 48 C25.0686117 49.46569415 22.11367734 49.62086218 18.875 50.0625 C17.59367187 50.23910156 16.31234375 50.41570312 14.9921875 50.59765625 C13.51105469 50.79681641 13.51105469 50.79681641 12 51 C12.66 53.64 13.32 56.28 14 59 C10.89619499 58.22404875 8.74997221 57.4731994 6 56 C5.67 56.99 5.34 57.98 5 59 C2.04335481 60.4783226 -0.74229737 60.06032783 -4 60 C-4.33 59.34 -4.66 58.68 -5 58 C-5.5775 58.226875 -6.155 58.45375 -6.75 58.6875 C-9 59 -9 59 -11.25 57.5625 C-11.8275 57.046875 -12.405 56.53125 -13 56 C-12.67 55.01 -12.34 54.02 -12 53 C-11.01 53 -10.02 53 -9 53 C-9.4021875 51.515 -9.4021875 51.515 -9.8125 50 C-11.09070806 44.923688 -12.01101222 39.78476046 -12.9465332 34.63671875 C-13.66081994 30.70308332 -13.66081994 30.70308332 -14.57421875 26.8125 C-16.23122855 19.75880689 -14.94513368 13.45663922 -12 7 C-11.34 6.01 -10.68 5.02 -10 4 C-9.34 4 -8.68 4 -8 4 C-7.67 3.01 -7.34 2.02 -7 1 C-4.53721199 -0.231394 -2.7204945 -0.07159196 0 0 Z " fill="#A5C175" transform="translate(145,95)"/>
<path d="M0 0 C1.56047445 0.00015913 3.12095416 0.00585397 4.68139648 0.01586914 C5.91115456 0.01799156 5.91115456 0.01799156 7.16575623 0.02015686 C9.79470406 0.0257725 12.42356797 0.0383276 15.05249023 0.05102539 C16.8304838 0.05603838 18.60847869 0.06060163 20.38647461 0.06469727 C24.75434569 0.07574701 29.12215371 0.09302208 33.48999023 0.11352539 C33.48999023 2.09352539 33.48999023 4.07352539 33.48999023 6.11352539 C21.93999023 6.11352539 10.38999023 6.11352539 -1.51000977 6.11352539 C2.44999023 6.44352539 6.40999023 6.77352539 10.48999023 7.11352539 C10.48999023 13.05352539 10.48999023 18.99352539 10.48999023 25.11352539 C16.42999023 25.44352539 22.36999023 25.77352539 28.48999023 26.11352539 C28.48999023 25.45352539 28.48999023 24.79352539 28.48999023 24.11352539 C29.14999023 24.11352539 29.80999023 24.11352539 30.48999023 24.11352539 C30.48999023 25.43352539 30.48999023 26.75352539 30.48999023 28.11352539 C31.14999023 28.11352539 31.80999023 28.11352539 32.48999023 28.11352539 C32.48999023 28.77352539 32.48999023 29.43352539 32.48999023 30.11352539 C24.56999023 30.44352539 16.64999023 30.77352539 8.48999023 31.11352539 C11.12999023 33.42352539 13.76999023 35.73352539 16.48999023 38.11352539 C16.15999023 39.10352539 15.82999023 40.09352539 15.48999023 41.11352539 C14.81194336 40.40325195 14.13389648 39.69297852 13.43530273 38.96118164 C8.06440687 33.657236 4.21413151 30.00535787 -3.70922852 29.98071289 C-4.30348633 30.02454102 -4.89774414 30.06836914 -5.51000977 30.11352539 C-5.51000977 29.45352539 -5.51000977 28.79352539 -5.51000977 28.11352539 C-4.85000977 28.11352539 -4.19000977 28.11352539 -3.51000977 28.11352539 C-3.54553955 27.30085205 -3.58106934 26.48817871 -3.61767578 25.65087891 C-3.7746265 21.9928005 -3.92367411 18.33444257 -4.07250977 14.67602539 C-4.12858398 13.39663086 -4.1846582 12.11723633 -4.24243164 10.79907227 C-4.29077148 9.58413086 -4.33911133 8.36918945 -4.38891602 7.11743164 C-4.43604736 5.99151611 -4.48317871 4.86560059 -4.53173828 3.70556641 C-4.49824999 -0.28932292 -4.11494237 0.13309092 0 0 Z " fill="#BAAE93" transform="translate(57.510009765625,93.886474609375)"/>
<path d="M0 0 C2.84428923 3.31833743 3.98507047 5.14901703 4.0625 9.5625 C2.77470816 13.72888535 1.50165855 15.4118176 -2 18 C-5.9112963 19.11751323 -8.02130142 19.39147943 -11.8125 17.875 C-14.29502729 15.74711947 -15.07739356 14.10331257 -16 11 C-17.65 11 -19.3 11 -21 11 C-20.855625 12.27875 -20.71125 13.5575 -20.5625 14.875 C-20.48128906 15.59429687 -20.40007812 16.31359375 -20.31640625 17.0546875 C-20.08707039 19.07404316 -20.08707039 19.07404316 -19 21 C-27.34715165 21.99957619 -35.48317259 22.02409528 -43.875 21.6875 C-45.07125 21.65205078 -46.2675 21.61660156 -47.5 21.58007812 C-49.22863281 21.51530273 -49.22863281 21.51530273 -50.9921875 21.44921875 C-52.02714355 21.41143311 -53.06209961 21.37364746 -54.12841797 21.3347168 C-57.066037 20.99230261 -59.32126093 20.22547233 -62 19 C-61.505 17.515 -61.505 17.515 -61 16 C-55.06 15.67 -49.12 15.34 -43 15 C-43 14.34 -43 13.68 -43 13 C-48.94 13 -54.88 13 -61 13 C-61 12.67 -61 12.34 -61 12 C-50.44 11.67 -39.88 11.34 -29 11 C-28.34 9.68 -27.68 8.36 -27 7 C-26.01 7.33 -25.02 7.66 -24 8 C-24 8.66 -24 9.32 -24 10 C-22.51882199 9.71872579 -21.04006751 9.42466268 -19.5625 9.125 C-18.73878906 8.96257812 -17.91507813 8.80015625 -17.06640625 8.6328125 C-16.38449219 8.42398438 -15.70257813 8.21515625 -15 8 C-14.67 7.34 -14.34 6.68 -14 6 C-11.07120629 6.62759865 -8.63904371 7.58622659 -6 9 C-6.33 8.4225 -6.66 7.845 -7 7.25 C-8 5 -8 5 -8 1 C-3.375 -1.125 -3.375 -1.125 0 0 Z " fill="#447A65" transform="translate(165,145)"/>
<path d="M0 0 C-0.48578543 3.12290635 -0.9986012 5.99580359 -2 9 C-2.66 9 -3.32 9 -4 9 C-4.34303709 19.86284133 -3.82724148 29.95962934 -1.65625 40.62109375 C-1 44 -1 44 -1 47 C-7.32127057 50.16063529 -16.53535781 47.98912067 -23 46 C-23.37851209 40.06997733 -22.10575375 35.52760359 -20 30 C-19.34 30 -18.68 30 -18 30 C-15.76059686 34.79872101 -14.9439136 39.82855847 -14 45 C-12.35 45 -10.7 45 -9 45 C-10.63619465 30.09379084 -10.63619465 30.09379084 -15 16 C-18.00689577 14.15820897 -18.00689577 14.15820897 -21 14 C-20.67 11.03 -20.34 8.06 -20 5 C-15.05 4.34 -10.1 3.68 -5 3 C-5 2.34 -5 1.68 -5 1 C-3 0 -3 0 0 0 Z " fill="#4D836A" transform="translate(133,101)"/>
<path d="M0 0 C3.81248345 -0.02936502 7.62493726 -0.04692035 11.4375 -0.0625 C12.50677734 -0.07087891 13.57605469 -0.07925781 14.67773438 -0.08789062 C20.87624228 -0.10684631 26.8549481 0.17936741 33 1 C32.67 6.94 32.34 12.88 32 19 C31.34 19 30.68 19 30 19 C30 19.66 30 20.32 30 21 C23.88909517 21.09945415 18.02596573 21.0712828 12 20 C10.87463217 14.65450281 9.46533963 7.06932075 12 2 C7.71 2 3.42 2 -1 2 C-0.67 1.34 -0.34 0.68 0 0 Z " fill="#CFB78A" transform="translate(56,99)"/>
<path d="M0 0 C1.6875 1.4375 1.6875 1.4375 3 3 C3.99 3.33 4.98 3.66 6 4 C6.33 5.65 6.66 7.3 7 9 C4.0686117 10.46569415 1.11367734 10.62086218 -2.125 11.0625 C-3.40632813 11.23910156 -4.68765625 11.41570312 -6.0078125 11.59765625 C-6.99523437 11.73042969 -7.98265625 11.86320313 -9 12 C-8.34 14.64 -7.68 17.28 -7 20 C-10.10380501 19.22404875 -12.25002779 18.4731994 -15 17 C-15.33 17.99 -15.66 18.98 -16 20 C-17.98 20.33 -19.96 20.66 -22 21 C-22.42001348 13.99977534 -20.55030401 9.27373944 -16 4 C-11.13974737 1.28963537 -5.60477632 -0.95691303 0 0 Z " fill="#A4BF74" transform="translate(166,134)"/>
<path d="M0 0 C6.0692113 4.99884383 6.62843343 12.43439007 7.40625 19.8984375 C7.65211157 23.26537505 7.8553145 26.627331 8 30 C6.35 30 4.7 30 3 30 C0.56198667 26.05677844 0.10550869 21.74486471 -0.625 17.25 C-0.7590625 16.45722656 -0.893125 15.66445312 -1.03125 14.84765625 C-1.35987298 12.89939142 -1.68070705 10.94981561 -2 9 C-5.59000917 8.32945231 -8.85627617 7.92697153 -12.5 8.125 C-16.6797364 8.19572312 -19.39655186 7.21750655 -23 5 C-23 3.68 -23 2.36 -23 1 C-22.10796875 0.93941406 -21.2159375 0.87882812 -20.296875 0.81640625 C-18.54117188 0.69072266 -18.54117188 0.69072266 -16.75 0.5625 C-15.58984375 0.48128906 -14.4296875 0.40007812 -13.234375 0.31640625 C-2.65356265 -0.71867322 -2.65356265 -0.71867322 0 0 Z " fill="#B8BEB9" transform="translate(116,116)"/>
<path d="M0 0 C2.24893954 -0.10823773 4.49937575 -0.18569645 6.75 -0.25 C8.00296875 -0.29640625 9.2559375 -0.3428125 10.546875 -0.390625 C14 0 14 0 15.875 1.96875 C19.20195603 5.14892855 22.80877381 4.67366642 27.25 4.75 C28.09046875 4.77964844 28.9309375 4.80929688 29.796875 4.83984375 C31.8640715 4.91031636 33.93204033 4.95744939 36 5 C36 5.66 36 6.32 36 7 C33.76352369 8.11823815 32.35108471 8.19396061 29.8671875 8.31640625 C28.65869141 8.37924805 28.65869141 8.37924805 27.42578125 8.44335938 C26.58402344 8.48267578 25.74226563 8.52199219 24.875 8.5625 C24.02550781 8.60568359 23.17601562 8.64886719 22.30078125 8.69335938 C20.20071777 8.79954236 18.10038052 8.90028497 16 9 C15.67 9.99 15.34 10.98 15 12 C10.34705563 16.1716053 6.11253918 16.31080708 0 16 C-4.08801642 15.23782745 -6.34269847 14.62270672 -9.375 11.75 C-11.14346803 8.75720795 -11.67999643 6.44003835 -12 3 C-10.02 2.67 -8.04 2.34 -6 2 C-5.566875 2.94875 -5.13375 3.8975 -4.6875 4.875 C-3.20697799 8.20041937 -3.20697799 8.20041937 0 10 C2.19037718 10.17549195 2.19037718 10.17549195 4.5 9.875 C5.66015625 9.77832031 5.66015625 9.77832031 6.84375 9.6796875 C9.56869886 9.05091577 9.56869886 9.05091577 12 5 C8.7 4.67 5.4 4.34 2 4 C2 3.34 2 2.68 2 2 C1.34 2 0.68 2 0 2 C0 1.34 0 0.68 0 0 Z " fill="#2F4238" transform="translate(86,153)"/>
<path d="M0 0 C0.33 0 0.66 0 1 0 C1 2.64 1 5.28 1 8 C1.66 8 2.32 8 3 8 C3 8.99 3 9.98 3 11 C9.6 11.33 16.2 11.66 23 12 C23.495 14.475 23.495 14.475 24 17 C22.99622314 17.01981934 21.99244629 17.03963867 20.95825195 17.06005859 C17.22135034 17.13633749 13.48482683 17.22501986 9.74829102 17.31738281 C8.1334583 17.35558072 6.51854316 17.39044945 4.90356445 17.421875 C2.57733783 17.46772609 0.25167408 17.52568584 -2.07421875 17.5859375 C-3.15107185 17.60326431 -3.15107185 17.60326431 -4.24967957 17.62094116 C-8.24658602 17.73767501 -11.39334769 18.24740681 -15 20 C-16.31587941 18.87895467 -17.62760353 17.75303035 -18.9375 16.625 C-19.66839844 15.99851563 -20.39929688 15.37203125 -21.15234375 14.7265625 C-23 13 -23 13 -24 11 C-15.75 11 -7.5 11 1 11 C0.67 10.34 0.34 9.68 0 9 C-0.06950541 7.45976004 -0.08452357 5.91665012 -0.0625 4.375 C-0.05347656 3.55773437 -0.04445313 2.74046875 -0.03515625 1.8984375 C-0.02355469 1.27195312 -0.01195313 0.64546875 0 0 Z " fill="#424743" transform="translate(89,113)"/>
<path d="M0 0 C2.05078125 0.03255208 4.1015625 0.06510417 6.15234375 0.09765625 C6.15234375 1.74765625 6.15234375 3.39765625 6.15234375 5.09765625 C6.81234375 5.09765625 7.47234375 5.09765625 8.15234375 5.09765625 C8.81234375 6.74765625 9.47234375 8.39765625 10.15234375 10.09765625 C10.9825 9.93523437 11.81265625 9.7728125 12.66796875 9.60546875 C16.45787622 9.05312798 20.07350904 8.96508938 23.90234375 8.97265625 C25.2171875 8.97007813 26.53203125 8.9675 27.88671875 8.96484375 C31.15234375 9.09765625 31.15234375 9.09765625 33.15234375 10.09765625 C33.15234375 11.74765625 33.15234375 13.39765625 33.15234375 15.09765625 C32.49234375 14.43765625 31.83234375 13.77765625 31.15234375 13.09765625 C28.56880157 12.93078177 28.56880157 12.93078177 26.15234375 13.09765625 C26.15234375 13.75765625 26.15234375 14.41765625 26.15234375 15.09765625 C23.37400626 16.486825 20.72713104 16.60398509 17.65234375 16.875 C15.17613868 17.06466334 15.17613868 17.06466334 12.83984375 17.4765625 C8.99474844 17.8971198 6.98161674 17.73048556 3.84375 15.3359375 C-0.40819101 10.8717784 -2.97787536 7.34817375 -2.84765625 1.09765625 C-1.84765625 0.09765625 -1.84765625 0.09765625 0 0 Z " fill="#B9C0B7" transform="translate(101.84765625,88.90234375)"/>
<path d="M0 0 C2.84428923 3.31833743 3.98507047 5.14901703 4.0625 9.5625 C2.77470816 13.72888535 1.50165855 15.4118176 -2 18 C-5.9112963 19.11751323 -8.02130142 19.39147943 -11.8125 17.875 C-14.29502729 15.74711947 -15.07739356 14.10331257 -16 11 C-18.97 11 -21.94 11 -25 11 C-25.66 9.68 -26.32 8.36 -27 7 C-26.01 7.33 -25.02 7.66 -24 8 C-24 8.66 -24 9.32 -24 10 C-22.51882199 9.71872579 -21.04006751 9.42466268 -19.5625 9.125 C-18.32693359 8.88136719 -18.32693359 8.88136719 -17.06640625 8.6328125 C-16.38449219 8.42398438 -15.70257813 8.21515625 -15 8 C-14.67 7.34 -14.34 6.68 -14 6 C-11.07120629 6.62759865 -8.63904371 7.58622659 -6 9 C-6.33 8.4225 -6.66 7.845 -7 7.25 C-8 5 -8 5 -8 1 C-3.375 -1.125 -3.375 -1.125 0 0 Z " fill="#606460" transform="translate(165,145)"/>
<path d="M0 0 C4.29 0 8.58 0 13 0 C13 5.94 13 11.88 13 18 C15.31 18 17.62 18 20 18 C16.22905955 20.5139603 13.23320555 20.26026442 8.875 20.1875 C8.13378906 20.18685547 7.39257812 20.18621094 6.62890625 20.18554688 C1.14039459 20.14039459 1.14039459 20.14039459 0 19 C-0.08651611 17.58429877 -0.10704904 16.164405 -0.09765625 14.74609375 C-0.09443359 13.89208984 -0.09121094 13.03808594 -0.08789062 12.15820312 C-0.07951172 11.26037109 -0.07113281 10.36253906 -0.0625 9.4375 C-0.05798828 8.53580078 -0.05347656 7.63410156 -0.04882812 6.70507812 C-0.03700244 4.47002411 -0.01906638 2.23500398 0 0 Z " fill="#D9C094" transform="translate(55,101)"/>
<path d="M0 0 C3.4375 0.1875 3.4375 0.1875 7 1 C9.07262968 3.34297269 9.01287386 5.13388816 9.3125 8.25 C8.83780073 13.94639126 7.66553168 18.29063854 3.625 22.4375 C0.87875576 24.07216919 -0.8361366 24.69867968 -4 25 C-5.0725 25.144375 -6.145 25.28875 -7.25 25.4375 C-12.5084468 24.82401454 -16.23353444 22.71807414 -20 19 C-21.04448481 16.42223207 -21.0567175 14.83587521 -21 12 C-18.75 11.625 -18.75 11.625 -16 12 C-15.401875 12.969375 -14.80375 13.93875 -14.1875 14.9375 C-12.39122453 18.04062674 -12.39122453 18.04062674 -10.1484375 18.7265625 C-6.60602346 19.29706364 -4.47856118 19.19766657 -1.125 17.8125 C1.17237593 15.85297347 2.19319388 14.90450203 3 12 C2.75336704 7.39618477 2.15224178 4.42634976 -1 1 C-0.67 0.67 -0.34 0.34 0 0 Z " fill="#272D2A" transform="translate(165,144)"/>
<path d="M0 0 C0 0.66 0 1.32 0 2 C1.11375 2.0825 2.2275 2.165 3.375 2.25 C7 3 7 3 8.4375 5.0625 C8.623125 5.701875 8.80875 6.34125 9 7 C9 6.34 9 5.68 9 5 C9.66 5 10.32 5 11 5 C11 5.66 11 6.32 11 7 C30.14 7.33 49.28 7.66 69 8 C69 8.33 69 8.66 69 9 C56.10557524 9.90714546 43.23351524 10.11064404 30.3125 10.125 C29.52532593 10.12749756 28.73815186 10.12999512 27.92712402 10.13256836 C6.37726461 10.1886323 6.37726461 10.1886323 2 8 C-0.12156123 7.79413422 -2.24768104 7.63385378 -4.375 7.5 C-8.03656971 7.26856896 -11.47339385 7.04234665 -15 6 C-15 5.01 -15 4.02 -15 3 C-12.36 3 -9.72 3 -7 3 C-7 2.34 -7 1.68 -7 1 C-3.375 -1.125 -3.375 -1.125 0 0 Z " fill="#3E7560" transform="translate(79,165)"/>
<path d="M0 0 C0.845625 0.495 1.69125 0.99 2.5625 1.5 C2.45186823 5.26148031 1.22221443 7.24576931 -1.375 9.8125 C-5.2861356 12.99844588 -8.59387428 13.01778283 -13.49609375 12.7109375 C-14.45708984 12.60652344 -14.45708984 12.60652344 -15.4375 12.5 C-15.49166188 10.89620659 -15.53036638 9.29188594 -15.5625 7.6875 C-15.58570312 6.79417969 -15.60890625 5.90085937 -15.6328125 4.98046875 C-15.4375 2.5 -15.4375 2.5 -13.4375 -0.5 C-8.53107516 -2.13547495 -4.75572976 -2.07522753 0 0 Z " fill="#A8C377" transform="translate(111.4375,59.5)"/>
<path d="M0 0 C11.55 0 23.1 0 35 0 C35 1.98 35 3.96 35 6 C23.12 6 11.24 6 -1 6 C-0.67 4.02 -0.34 2.04 0 0 Z " fill="#D6C193" transform="translate(56,94)"/>
<path d="M0 0 C1.2065625 0.0309375 1.2065625 0.0309375 2.4375 0.0625 C3.4375 3.0625 3.4375 3.0625 2.3125 6.0625 C0.26451992 9.33926813 -1.03906621 10.55245695 -4.5625 12.0625 C-7.375 12.25 -7.375 12.25 -9.5625 12.0625 C-9.5625 12.7225 -9.5625 13.3825 -9.5625 14.0625 C-10.8825 14.0625 -12.2025 14.0625 -13.5625 14.0625 C-15.7325275 11.16913001 -16.76584677 8.5469272 -17.5625 5.0625 C-16.56347656 4.78535156 -15.56445312 4.50820312 -14.53515625 4.22265625 C-13.23172209 3.85694451 -11.92833931 3.49104962 -10.625 3.125 C-9.96564453 2.94259766 -9.30628906 2.76019531 -8.62695312 2.57226562 C-5.55437821 1.70564193 -3.03121434 0.07393206 0 0 Z " fill="#E2BB94" transform="translate(113.5625,70.9375)"/>
<path d="M0 0 C0.78503906 -0.01224609 1.57007812 -0.02449219 2.37890625 -0.03710938 C4.42063726 -0.04236254 6.46192251 0.0652982 8.5 0.1875 C9.16 0.8475 9.82 1.5075 10.5 2.1875 C6.21 2.1875 1.92 2.1875 -2.5 2.1875 C-2.5 2.8475 -2.5 3.5075 -2.5 4.1875 C-1.84 4.1875 -1.18 4.1875 -0.5 4.1875 C-0.5 4.8475 -0.5 5.5075 -0.5 6.1875 C2.8 6.5175 6.1 6.8475 9.5 7.1875 C7.5 11.1875 7.5 11.1875 5.75 12.4375 C2.76448836 13.43267055 0.63343215 13.57118557 -2.5 13.1875 C-5.77584369 11.22199378 -7.22058689 10.13320593 -8.3125 6.4375 C-8.374375 5.695 -8.43625 4.9525 -8.5 4.1875 C-9.49 4.1875 -10.48 4.1875 -11.5 4.1875 C-11.17 3.1975 -10.84 2.2075 -10.5 1.1875 C-7.21646451 -0.45426774 -3.60480362 0.00295961 0 0 Z " fill="#767776" transform="translate(88.5,150.8125)"/>
<path d="M0 0 C0.66 0 1.32 0 2 0 C2.37125 1.175625 2.7425 2.35125 3.125 3.5625 C4.85648743 8.15257518 7.26559214 11.78840924 11 15 C13.70808151 16.03252936 13.70808151 16.03252936 16 16 C16.36371923 22.42570647 16.36371923 22.42570647 14.8125 24.875 C10.25689454 27.70261718 5.77696152 26.87110604 0.6875 26.0625 C-0.56675781 25.86785156 -1.82101563 25.67320313 -3.11328125 25.47265625 C-4.06589844 25.31667969 -5.01851563 25.16070312 -6 25 C-5.505 23.515 -5.505 23.515 -5 22 C0.28 22.33 5.56 22.66 11 23 C9.02 22.01 7.04 21.02 5 20 C5 19.34 5 18.68 5 18 C6.65 18.33 8.3 18.66 10 19 C9.61328125 18.56429687 9.2265625 18.12859375 8.828125 17.6796875 C0.12820513 7.73076923 0.12820513 7.73076923 -0.25 2.625 C-0.1675 1.75875 -0.085 0.8925 0 0 Z " fill="#9BAE68" transform="translate(97,90)"/>
<path d="M0 0 C0.66 0 1.32 0 2 0 C4.25085565 4.82326211 5.02918957 9.79922985 6 15 C12.435 14.505 12.435 14.505 19 14 C19 14.99 19 15.98 19 17 C12.67872943 20.16063529 3.46464219 17.98912067 -3 16 C-3.37851209 10.06997733 -2.10575375 5.52760359 0 0 Z " fill="#557D64" transform="translate(113,131)"/>
<path d="M0 0 C0.433125 0.94875 0.86625 1.8975 1.3125 2.875 C2.79302201 6.20041937 2.79302201 6.20041937 6 8 C7.97499548 8.03237698 9.95127921 8.05865215 11.92578125 8.00390625 C14.68688302 7.99870643 17.29862698 8.4597254 20 9 C17.57961783 12.75159236 17.57961783 12.75159236 15.25 13.75 C9.45775079 14.39358325 4.45961362 14.16324313 -1 12 C-4.56967458 8.61820303 -5.54861494 5.85238935 -6 1 C-3 0 -3 0 0 0 Z " fill="#282C29" transform="translate(80,155)"/>
<path d="M0 0 C1.31157516 2.62315032 0.89649988 4.23033436 0.5625 7.125 C0.46066406 8.03507812 0.35882813 8.94515625 0.25390625 9.8828125 C0.12822266 10.93082031 0.12822266 10.93082031 0 12 C6.67415172 11.97314225 10.78214699 11.210736 15.625 6.47265625 C16.07875 5.98667969 16.5325 5.50070313 17 5 C17.66 4.34 18.32 3.68 19 3 C22.625 3.375 22.625 3.375 26 4 C26 4.66 26 5.32 26 6 C25.195625 6.268125 24.39125 6.53625 23.5625 6.8125 C22.716875 7.204375 21.87125 7.59625 21 8 C20.67 8.99 20.34 9.98 20 11 C17.3046875 12.1328125 17.3046875 12.1328125 13.875 13.125 C12.11542969 13.63546875 12.11542969 13.63546875 10.3203125 14.15625 C7.7673303 14.80500783 5.35746362 15.31952309 2.75 15.625 C1.8425 15.74875 0.935 15.8725 0 16 C-0.33 16.66 -0.66 17.32 -1 18 C-1 16.68 -1 15.36 -1 14 C-1.66 14 -2.32 14 -3 14 C-3.08153933 12.41753293 -3.13943557 10.83383727 -3.1875 9.25 C-3.22230469 8.36828125 -3.25710937 7.4865625 -3.29296875 6.578125 C-2.94923684 3.55328417 -1.99772541 2.24416398 0 0 Z " fill="#8BA35E" transform="translate(96,60)"/>
<path d="M0 0 C0.66 0 1.32 0 2 0 C2.66 4.29 3.32 8.58 4 13 C8.29 13.66 12.58 14.32 17 15 C17 15.33 17 15.66 17 16 C13.04 16 9.08 16 5 16 C5.33 17.32 5.66 18.64 6 20 C9.84928034 22.23958129 13.25611005 22.1606948 17.625 22 C23.6681128 21.77874187 23.6681128 21.77874187 27 24 C27.70052461 26.663063 27.77744818 29.24035737 28 32 C26.45428722 29.68143083 25.20381448 27.49361571 24 25 C22.72382812 24.93941406 21.44765625 24.87882812 20.1328125 24.81640625 C18.46352984 24.73200432 16.79425963 24.64735614 15.125 24.5625 C14.28324219 24.52318359 13.44148438 24.48386719 12.57421875 24.44335938 C11.36572266 24.38051758 11.36572266 24.38051758 10.1328125 24.31640625 C9.38918457 24.27974854 8.64555664 24.24309082 7.87939453 24.20532227 C6 24 6 24 4 23 C4 22.01 4 21.02 4 20 C2.68 20.33 1.36 20.66 0 21 C0 14.07 0 7.14 0 0 Z " fill="#868E84" transform="translate(88,101)"/>
<path d="M0 0 C0.33 0 0.66 0 1 0 C1.10957031 0.825 1.21914062 1.65 1.33203125 2.5 C2.42516493 10.46299003 3.76669518 18.32587908 5.31640625 26.2109375 C6.0248519 30.13775052 6.53875093 34.03765085 7 38 C5.68 38 4.36 38 3 38 C-2.73408351 12.30337578 -2.73408351 12.30337578 0 0 Z " fill="#7F9D69" transform="translate(129,110)"/>
<path d="M0 0 C0.66 0.33 1.32 0.66 2 1 C1.67 2.32 1.34 3.64 1 5 C-12.2 5 -25.4 5 -39 5 C-39 7.64 -39 10.28 -39 13 C-38.34 13 -37.68 13 -37 13 C-37 19.93 -37 26.86 -37 34 C-37.66 34 -38.32 34 -39 34 C-39.17183889 31.43775934 -39.33748935 28.87533694 -39.5 26.3125 C-39.54769531 25.61060547 -39.59539063 24.90871094 -39.64453125 24.18554688 C-40.06561711 17.41809558 -40 10.82801833 -40 4 C-26.8 4 -13.6 4 0 4 C0 2.68 0 1.36 0 0 Z " fill="#618868" transform="translate(91,88)"/>
<path d="M0 0 C0.66 0 1.32 0 2 0 C2 8.58 2 17.16 2 26 C4.64 26.99 7.28 27.98 10 29 C10 29.66 10 30.32 10 31 C10.53625 31.226875 11.0725 31.45375 11.625 31.6875 C14.78500863 33.43382056 17.2676983 35.6402849 20 38 C19.67 38.99 19.34 39.98 19 41 C18.32195312 40.28972656 17.64390625 39.57945312 16.9453125 38.84765625 C11.57441664 33.54371061 7.72414127 29.89183248 -0.19921875 29.8671875 C-0.79347656 29.91101563 -1.38773438 29.95484375 -2 30 C-2 29.34 -2 28.68 -2 28 C-1.34 28 -0.68 28 0 28 C-0.03552979 27.18732666 -0.07105957 26.37465332 -0.10766602 25.53735352 C-0.26461673 21.87927511 -0.41366434 18.22091718 -0.5625 14.5625 C-0.61857422 13.28310547 -0.67464844 12.00371094 -0.73242188 10.68554688 C-0.78076172 9.47060547 -0.82910156 8.25566406 -0.87890625 7.00390625 C-0.9260376 5.87799072 -0.97316895 4.7520752 -1.02172852 3.59204102 C-1 1 -1 1 0 0 Z " fill="#C7B68E" transform="translate(54,94)"/>
<path d="M0 0 C2.475 0.495 2.475 0.495 5 1 C4.401875 1.28875 3.80375 1.5775 3.1875 1.875 C0.80672208 3.04742026 0.80672208 3.04742026 -2 5 C-2.99 5 -3.98 5 -5 5 C-5.268125 5.53625 -5.53625 6.0725 -5.8125 6.625 C-6.68774798 8.37549596 -7.61204143 10.10167457 -8.5625 11.8125 C-10.1156826 15.2565136 -10.62572052 18.25720519 -11 22 C-11.99 22 -12.98 22 -14 22 C-14.33 21.34 -14.66 20.68 -15 20 C-15.99 20 -16.98 20 -18 20 C-16.9145018 17.55762905 -15.76291301 15.70937724 -14.0625 13.625 C-11.91075519 10.8864157 -10.46512401 8.15001662 -9 5 C-8.34 5 -7.68 5 -7 5 C-7 4.34 -7 3.68 -7 3 C-3.535 2.505 -3.535 2.505 0 2 C0 1.34 0 0.68 0 0 Z " fill="#88A65C" transform="translate(155,133)"/>
<path d="M0 0 C-0.875 5.875 -0.875 5.875 -2 7 C-4.53049402 7.07313567 -7.03304837 7.09247527 -9.5625 7.0625 C-10.27341797 7.05798828 -10.98433594 7.05347656 -11.71679688 7.04882812 C-13.47790013 7.03700864 -15.23896036 7.01907263 -17 7 C-17 9.31 -17 11.62 -17 14 C-18.32 14 -19.64 14 -21 14 C-20.67 11.03 -20.34 8.06 -20 5 C-15.05 4.34 -10.1 3.68 -5 3 C-5 2.34 -5 1.68 -5 1 C-3 0 -3 0 0 0 Z " fill="#537D68" transform="translate(133,101)"/>
<path d="M0 0 C0.33 0 0.66 0 1 0 C1 8.58 1 17.16 1 26 C-0.65 26 -2.3 26 -4 26 C-4.15744946 22.69356134 -4.0735477 20.21604638 -3 17.0625 C-1.54218608 12.59794486 -1.12637013 7.42857969 -3 3 C-3.99 2.67 -4.98 2.34 -6 2 C-4.35 2 -2.7 2 -1 2 C-0.67 1.34 -0.34 0.68 0 0 Z " fill="#467464" transform="translate(175,142)"/>
<path d="M0 0 C0.99 0.33 1.98 0.66 3 1 C3 1.66 3 2.32 3 3 C7.455 2.505 7.455 2.505 12 2 C12.7734375 3.4540625 12.7734375 3.4540625 13.5625 4.9375 C15.74593549 8.30371658 15.74593549 8.30371658 19.5 8.9375 C23.12106805 9.15377086 23.12106805 9.15377086 27 8 C27.66 5.36 28.32 2.72 29 0 C29.33 0 29.66 0 30 0 C30.46009282 3.95679828 30.33274372 5.54625856 27.9375 8.8125 C24.42467309 11.42843493 22.36418555 12 18 12 C14.52163182 10.60865273 13.33643345 9.68888754 11.6875 6.3125 C11.460625 5.549375 11.23375 4.78625 11 4 C8.03 4 5.06 4 2 4 C1.34 2.68 0.68 1.36 0 0 Z " fill="#787878" transform="translate(138,152)"/>
<path d="M0 0 C0.66 0 1.32 0 2 0 C2.495 0.99 2.495 0.99 3 2 C5.02463255 2.65213292 5.02463255 2.65213292 7 3 C6.67 4.32 6.34 5.64 6 7 C6 6.34 6 5.68 6 5 C5.40574219 5.0721875 4.81148437 5.144375 4.19921875 5.21875 C-8.24684078 6.61239897 -20.53993386 5.76761684 -33 5 C-33 4.67 -33 4.34 -33 4 C-22.44 3.67 -11.88 3.34 -1 3 C-0.67 2.01 -0.34 1.02 0 0 Z " fill="#496A47" transform="translate(137,153)"/>
<path d="M0 0 C3.53571429 0.53571429 3.53571429 0.53571429 5 2 C5.45226612 6.86186074 4.40385693 9.79325038 2 14 C-0.88994071 11.01974864 -1.94805086 9.51083317 -2.375 5.3125 C-2 2 -2 2 0 0 Z " fill="#8C9B62" transform="translate(69,104)"/>
<path d="M0 0 C4.29 0 8.58 0 13 0 C12.01 0.495 12.01 0.495 11 1 C11.57344937 3.86724686 11.8614515 4.8614515 14 7 C12.35 7.66 10.7 8.32 9 9 C7.68412059 7.87895467 6.37239647 6.75303035 5.0625 5.625 C4.33160156 4.99851563 3.60070312 4.37203125 2.84765625 3.7265625 C1 2 1 2 0 0 Z " fill="#4F6F60" transform="translate(65,124)"/>
<path d="M0 0 C1 3 1 3 -0.4375 6.1875 C-1.2109375 7.5796875 -1.2109375 7.5796875 -2 9 C-2.33 8.01 -2.66 7.02 -3 6 C-4.98 6.33 -6.96 6.66 -9 7 C-9 6.34 -9 5.68 -9 5 C-10.98 5 -12.96 5 -15 5 C-11.11932678 1.11932678 -5.4348024 -0.50951273 0 0 Z " fill="#DEB194" transform="translate(116,71)"/>
<path d="M0 0 C8.94390988 -0.78150669 8.94390988 -0.78150669 13.125 2.3125 C15 5 15 5 15 8 C12.69 8 10.38 8 8 8 C8 6.68 8 5.36 8 4 C6.68 4 5.36 4 4 4 C4 3.34 4 2.68 4 2 C2.68 2 1.36 2 0 2 C0 1.34 0 0.68 0 0 Z " fill="#4C7C66" transform="translate(52,124)"/>
<path d="M0 0 C0.33 0 0.66 0 1 0 C1.36305732 5.44585987 1.36305732 5.44585987 -0.1875 7.8125 C-4.68476777 10.75898578 -9.23094769 9.86984943 -14.3125 9.0625 C-15.56675781 8.86785156 -16.82101563 8.67320313 -18.11328125 8.47265625 C-19.06589844 8.31667969 -20.01851563 8.16070312 -21 8 C-20.67 7.01 -20.34 6.02 -20 5 C-13.73 5.33 -7.46 5.66 -1 6 C-1 4.35 -1 2.7 -1 1 C-0.67 0.67 -0.34 0.34 0 0 Z " fill="#94A86A" transform="translate(112,107)"/>
<path d="M0 0 C1.65 0 3.3 0 5 0 C5 0.66 5 1.32 5 2 C5.66 2 6.32 2 7 2 C7 2.66 7 3.32 7 4 C9.64 4.33 12.28 4.66 15 5 C14.01 5.495 14.01 5.495 13 6 C13 6.66 13 7.32 13 8 C11.741875 8.020625 10.48375 8.04125 9.1875 8.0625 C8.47980469 8.07410156 7.77210937 8.08570313 7.04296875 8.09765625 C5 8 5 8 2 7 C0.8125 3.4375 0.8125 3.4375 0 0 Z " fill="#5C5E5D" transform="translate(81,153)"/>
<path d="M0 0 C2.31 0.33 4.62 0.66 7 1 C7 1.99 7 2.98 7 4 C7.1496644 5.39775858 7.31720487 6.7936871 7.5 8.1875 C7.665 9.445625 7.83 10.70375 8 12 C7.67 11.34 7.34 10.68 7 10 C5.68 10 4.36 10 3 10 C2.67 9.01 2.34 8.02 2 7 C1.01 7.99 0.02 8.98 -1 10 C-2.15837626 5.94568308 -1.83691257 3.78187881 0 0 Z " fill="#9CBF7B" transform="translate(133,102)"/>
<path d="M0 0 C1.33333333 2.66666667 2.66666667 5.33333333 4 8 C2.68 8.33 1.36 8.66 0 9 C0.33 9.99 0.66 10.98 1 12 C0.34 12 -0.32 12 -1 12 C-4.40027839 8.49668287 -5.54961229 5.84166786 -6 1 C-3 0 -3 0 0 0 Z " fill="#31312D" transform="translate(80,155)"/>
<path d="M0 0 C1.24007812 0.01546875 2.48015625 0.0309375 3.7578125 0.046875 C6.875 0.25 6.875 0.25 8.875 1.25 C8.545 6.53 8.215 11.81 7.875 17.25 C4.875 13.25 4.875 13.25 5.01953125 10.453125 C5.63802083 7.71875 6.25651042 4.984375 6.875 2.25 C0.935 2.58 -5.005 2.91 -11.125 3.25 C-6.62972176 -0.12145868 -5.40641043 -0.11286869 0 0 Z " fill="#99B166" transform="translate(97.125,134.75)"/>
<path d="M0 0 C1.98 0.66 3.96 1.32 6 2 C6.33 3.65 6.66 5.3 7 7 C4.44070246 8.27964877 2.0805927 8.51150284 -0.75 8.9375 C-5.00827031 9.61820908 -8.96341996 10.43021887 -13 12 C-9.5169755 7.60836041 -5.2561023 6.33939286 0 5 C0.66 5 1.32 5 2 5 C2 4.01 2 3.02 2 2 C1.34 2 0.68 2 0 2 C0 1.34 0 0.68 0 0 Z " fill="#BFDA95" transform="translate(166,136)"/>
<path d="M0 0 C0.99 0.495 0.99 0.495 2 1 C2 1.99 2 2.98 2 4 C3.32 4 4.64 4 6 4 C6 3.34 6 2.68 6 2 C9.34132246 3.67066123 11.19693334 6.79229714 13 10 C13.3125 12.9375 13.3125 12.9375 13 15 C12.67 14.34 12.34 13.68 12 13 C11.34 13 10.68 13 10 13 C10 11.35 10 9.7 10 8 C5.545 8.495 5.545 8.495 1 9 C1.33 7.68 1.66 6.36 2 5 C1.34 5 0.68 5 0 5 C0 3.35 0 1.7 0 0 Z " fill="#A8B686" transform="translate(98,81)"/>
<path d="M0 0 C2.38171031 3.80273074 2.65510945 7.89003197 3.125 12.25 C3.21136719 12.99507812 3.29773438 13.74015625 3.38671875 14.5078125 C3.59786867 16.33777846 3.79984545 18.16879879 4 20 C2.68 20 1.36 20 0 20 C-1.06375135 16.80874596 -1.13335484 14.47529029 -1.125 11.125 C-1.12757813 10.09632813 -1.13015625 9.06765625 -1.1328125 8.0078125 C-1.00995061 5.225352 -0.62944236 2.70760126 0 0 Z " fill="#87A067" transform="translate(132,128)"/>
<path d="M0 0 C1.31157516 2.62315032 0.89649988 4.23033436 0.5625 7.125 C0.46066406 8.03507812 0.35882813 8.94515625 0.25390625 9.8828125 C0.12822266 10.93082031 0.12822266 10.93082031 0 12 C2.31 12 4.62 12 7 12 C5.02 12.99 5.02 12.99 3 14 C3 14.66 3 15.32 3 16 C2.01 16 1.02 16 0 16 C-0.33 16.66 -0.66 17.32 -1 18 C-1 16.68 -1 15.36 -1 14 C-1.66 14 -2.32 14 -3 14 C-3.08153933 12.41753293 -3.13943557 10.83383727 -3.1875 9.25 C-3.22230469 8.36828125 -3.25710937 7.4865625 -3.29296875 6.578125 C-2.94923684 3.55328417 -1.99772541 2.24416398 0 0 Z " fill="#88A76A" transform="translate(96,60)"/>
<path d="M0 0 C4.62 0 9.24 0 14 0 C13.01 0.33 12.02 0.66 11 1 C11.33 2.32 11.66 3.64 12 5 C8.7 4.67 5.4 4.34 2 4 C2 3.34 2 2.68 2 2 C1.34 2 0.68 2 0 2 C0 1.34 0 0.68 0 0 Z " fill="#3A432E" transform="translate(86,153)"/>
<path d="M0 0 C0.33 0.99 0.66 1.98 1 3 C1.99 3.33 2.98 3.66 4 4 C4.97299156 8.85729645 5.12038805 13.4500625 5.0625 18.375 C5.05798828 19.11105469 5.05347656 19.84710938 5.04882812 20.60546875 C5.03715142 22.40368158 5.01922011 24.20185197 5 26 C4.67 26 4.34 26 4 26 C3.51875423 23.16700602 3.03995391 20.33363343 2.5625 17.5 C2.42779297 16.70851562 2.29308594 15.91703125 2.15429688 15.1015625 C1.31016983 10.07797716 0.59755977 5.05895259 0 0 Z " fill="#788C83" transform="translate(120,120)"/>
<path d="M0 0 C0.78503906 -0.01224609 1.57007812 -0.02449219 2.37890625 -0.03710938 C4.42063726 -0.04236254 6.46192251 0.0652982 8.5 0.1875 C9.16 0.8475 9.82 1.5075 10.5 2.1875 C4.56 2.1875 -1.38 2.1875 -7.5 2.1875 C-7.5 2.8475 -7.5 3.5075 -7.5 4.1875 C-8.82 4.1875 -10.14 4.1875 -11.5 4.1875 C-11.17 3.1975 -10.84 2.2075 -10.5 1.1875 C-7.21646451 -0.45426774 -3.60480362 0.00295961 0 0 Z " fill="#869865" transform="translate(88.5,150.8125)"/>
<path d="M0 0 C0.33 1.32 0.66 2.64 1 4 C3.31 4 5.62 4 8 4 C8 4.99 8 5.98 8 7 C5.47524538 8.26237731 3.68799534 8.09856404 0.875 8.0625 C-0.03507813 8.05347656 -0.94515625 8.04445312 -1.8828125 8.03515625 C-2.58148438 8.02355469 -3.28015625 8.01195312 -4 8 C-2.68 5.36 -1.36 2.72 0 0 Z " fill="#386E59" transform="translate(170,164)"/>
<path d="M0 0 C0 0.99 0 1.98 0 3 C-2.64458379 4.32229189 -4.67761301 4.09677194 -7.625 4.0625 C-8.62789063 4.05347656 -9.63078125 4.04445312 -10.6640625 4.03515625 C-11.43492188 4.02355469 -12.20578125 4.01195312 -13 4 C-13.33 3.01 -13.66 2.02 -14 1 C-9.27616037 0.34843591 -4.78025483 -0.11950637 0 0 Z " fill="#3B4A3A" transform="translate(132,145)"/>
<path d="M0 0 C4.09614769 0.86649278 6.47535725 1.46190487 9.4375 4.5 C11 7 11 7 11 9 C14.96 9 18.92 9 23 9 C23.33 10.65 23.66 12.3 24 14 C23.34 13.67 22.68 13.34 22 13 C22 12.34 22 11.68 22 11 C21.20335937 11.00902344 20.40671875 11.01804688 19.5859375 11.02734375 C11.00892127 10.78735424 11.00892127 10.78735424 8.0078125 8.4453125 C6.5 6.5625 6.5 6.5625 5.28125 4.69140625 C3.75711259 2.679359 2.30118146 1.97020151 0 1 C0 0.67 0 0.34 0 0 Z " fill="#5F9164" transform="translate(146,124)"/>
<path d="M0 0 C0.33 0.99 0.66 1.98 1 3 C0.34 3 -0.32 3 -1 3 C-1 6.3 -1 9.6 -1 13 C-1.33 12.34 -1.66 11.68 -2 11 C-2.66 11 -3.32 11 -4 11 C-4.28875 9.88625 -4.5775 8.7725 -4.875 7.625 C-5.69241329 3.99708908 -5.69241329 3.99708908 -8 2 C-5.36 2 -2.72 2 0 2 C0 1.34 0 0.68 0 0 Z " fill="#51805D" transform="translate(145,102)"/>
<path d="M0 0 C0.66 0 1.32 0 2 0 C2.33 4.29 2.66 8.58 3 13 C1.68 12.67 0.36 12.34 -1 12 C-0.67 10.68 -0.34 9.36 0 8 C-0.66 8 -1.32 8 -2 8 C-1.33333333 5.33333333 -0.66666667 2.66666667 0 0 Z " fill="#4F785F" transform="translate(128,132)"/>
<path d="M0 0 C0 1.32 0 2.64 0 4 C-0.99 3.67 -1.98 3.34 -3 3 C-2.67 2.67 -2.34 2.34 -2 2 C-6.95 2 -11.9 2 -17 2 C-16.67 1.34 -16.34 0.68 -16 0 C-13.671875 -0.44921875 -13.671875 -0.44921875 -10.75 -0.6875 C-9.31914063 -0.81705078 -9.31914063 -0.81705078 -7.859375 -0.94921875 C-5.06574054 -0.99883248 -2.70681091 -0.65694498 0 0 Z " fill="#424540" transform="translate(113,126)"/>
<path d="M0 0 C0.66 0 1.32 0 2 0 C2.66 3.63 3.32 7.26 4 11 C3.01 11.33 2.02 11.66 1 12 C1 14.97 1 17.94 1 21 C0.67 21 0.34 21 0 21 C0 14.07 0 7.14 0 0 Z " fill="#949F6B" transform="translate(88,101)"/>
<path d="M0 0 C1.32 0 2.64 0 4 0 C4 0.66 4 1.32 4 2 C5.32 2 6.64 2 8 2 C8 3.65 8 5.3 8 7 C3.25 8.125 3.25 8.125 1 7 C2.65 6.67 4.3 6.34 6 6 C6 5.34 6 4.68 6 4 C3.69 4 1.38 4 -1 4 C-0.67 2.68 -0.34 1.36 0 0 Z " fill="#65906A" transform="translate(116,60)"/>
<path d="M0 0 C0.66 0 1.32 0 2 0 C2.4125 1.19625 2.825 2.3925 3.25 3.625 C4.70385994 7.53442243 6.55749994 10.6310344 9 14 C6.6174032 13.60799155 5.28328262 13.27060945 3.515625 11.58203125 C0.66539598 7.59698882 -0.61970139 5.08155144 0 0 Z " fill="#9EAD79" transform="translate(97,90)"/>
<path d="M0 0 C1.32 0.33 2.64 0.66 4 1 C4 1.66 4 2.32 4 3 C4.53625 3.226875 5.0725 3.45375 5.625 3.6875 C8.78500863 5.43382056 11.2676983 7.6402849 14 10 C13.67 10.99 13.34 11.98 13 13 C12.22914062 12.28972656 11.45828125 11.57945312 10.6640625 10.84765625 C9.65114976 9.9191529 8.63812299 8.99077394 7.625 8.0625 C7.11710937 7.59392578 6.60921875 7.12535156 6.0859375 6.64257812 C3.25734146 4.02273232 3.25734146 4.02273232 0 2 C0 1.34 0 0.68 0 0 Z " fill="#B5CABC" transform="translate(60,122)"/>
<path d="M0 0 C2.97 0 5.94 0 9 0 C5 2 5 2 3 2 C3 4.31 3 6.62 3 9 C1.68 9 0.36 9 -1 9 C-0.67 6.03 -0.34 3.06 0 0 Z " fill="#4B785F" transform="translate(113,106)"/>
<path d="M0 0 C0.99 0.495 0.99 0.495 2 1 C2 1.66 2 2.32 2 3 C2.556875 3.20625 3.11375 3.4125 3.6875 3.625 C6.92501302 5.55000774 8.68231141 8.03850902 11 11 C6.60666696 9.80181826 3.81538596 8.6495744 1 5 C0.25 2.25 0.25 2.25 0 0 Z " fill="#CAE99C" transform="translate(141,120)"/>
<path d="M0 0 C0.66 0 1.32 0 2 0 C1.75 2.375 1.75 2.375 1 5 C-1.0625 6.3125 -1.0625 6.3125 -3 7 C-3 7.66 -3 8.32 -3 9 C-3.66 9 -4.32 9 -5 9 C-5 8.34 -5 7.68 -5 7 C-6.32 6.34 -7.64 5.68 -9 5 C-5.62902617 3.50178941 -3.79557881 3 0 3 C0 2.01 0 1.02 0 0 Z " fill="#537D5E" transform="translate(123,64)"/>
<path d="M0 0 C0.33 1.65 0.66 3.3 1 5 C-0.32 5.33 -1.64 5.66 -3 6 C-4.32 4.35 -5.64 2.7 -7 1 C-4.53721199 -0.231394 -2.7204945 -0.07159196 0 0 Z " fill="#4C7F6B" transform="translate(74,125)"/>
<path d="M0 0 C0.33 0.66 0.66 1.32 1 2 C-3.17737474 3.59138085 -6.53160785 4.21278058 -11 4 C-10.67 3.01 -10.34 2.02 -10 1 C-6.52674819 -0.1577506 -3.63932552 -0.06866652 0 0 Z " fill="#9AC481" transform="translate(108,58)"/>
<path d="M0 0 C0.66 0.33 1.32 0.66 2 1 C0.71700242 3.86207152 -0.530636 6.0245088 -3 8 C-3.99 8 -4.98 8 -6 8 C-6.33 9.32 -6.66 10.64 -7 12 C-7.99 10.68 -8.98 9.36 -10 8 C-3.25 4 -3.25 4 -1 4 C-0.67 2.68 -0.34 1.36 0 0 Z " fill="#5F7B5B" transform="translate(115,76)"/>
<path d="M0 0 C0.99 0.33 1.98 0.66 3 1 C3 1.66 3 2.32 3 3 C7.455 2.505 7.455 2.505 12 2 C12.99 3.98 13.98 5.96 15 8 C14.01 8 13.02 8 12 8 C11.67 6.68 11.34 5.36 11 4 C8.03 4 5.06 4 2 4 C1.34 2.68 0.68 1.36 0 0 Z " fill="#748367" transform="translate(138,152)"/>
<path d="M0 0 C0.2475 0.639375 0.495 1.27875 0.75 1.9375 C1.81562433 4.18741541 1.81562433 4.18741541 4.125 4.75 C4.74375 4.8325 5.3625 4.915 6 5 C6 5.99 6 6.98 6 8 C3.36 8 0.72 8 -2 8 C-2 7.34 -2 6.68 -2 6 C-1.34 6 -0.68 6 0 6 C0 4.02 0 2.04 0 0 Z " fill="#B9BBA3" transform="translate(54,116)"/>
<path d="M0 0 C2.64 0 5.28 0 8 0 C7.01 0.495 7.01 0.495 6 1 C6 1.66 6 2.32 6 3 C4.68 3 3.36 3 2 3 C1.67 4.65 1.34 6.3 1 8 C-1 5 -1 5 -0.625 2.3125 C-0.41875 1.549375 -0.2125 0.78625 0 0 Z " fill="#B4C2A7" transform="translate(100,89)"/>
<path d="M0 0 C-4.21683811 2.8990762 -8.06866002 3.91343356 -13 5 C-13 4.34 -13 3.68 -13 3 C-11.40084119 2.30093058 -9.79544955 1.61610532 -8.1875 0.9375 C-7.29417969 0.55464844 -6.40085937 0.17179687 -5.48046875 -0.22265625 C-3 -1 -3 -1 0 0 Z " fill="#5E5E37" transform="translate(112,71)"/>
<path d="M0 0 C0.99 0.33 1.98 0.66 3 1 C3.33 2.98 3.66 4.96 4 7 C4.66 7 5.32 7 6 7 C6.33 8.32 6.66 9.64 7 11 C6.34 11 5.68 11 5 11 C1.59972161 7.49668287 0.45038771 4.84166786 0 0 Z " fill="#2C4037" transform="translate(74,156)"/>
<path d="M0 0 C0.33 0 0.66 0 1 0 C1.103125 0.928125 1.20625 1.85625 1.3125 2.8125 C2.02570928 6.11919757 2.55594822 6.87473758 5 9 C5 9.66 5 10.32 5 11 C3.35 11 1.7 11 0 11 C0 7.37 0 3.74 0 0 Z " fill="#A4BF69" transform="translate(105,141)"/>
<path d="M0 0 C0.33 0.66 0.66 1.32 1 2 C1.66 2 2.32 2 3 2 C3.99 4.97 4.98 7.94 6 11 C5.34 11 4.68 11 4 11 C3.34 10.34 2.68 9.68 2 9 C1.67 9 1.34 9 1 9 C0.67 6.03 0.34 3.06 0 0 Z " fill="#AAD186" transform="translate(139,112)"/>
<path d="M0 0 C2.31 0.33 4.62 0.66 7 1 C6 4 6 4 3.625 5.25 C1 6 1 6 -2 5 C-1.34 3.35 -0.68 1.7 0 0 Z " fill="#8BA368" transform="translate(133,102)"/>
<path d="M0 0 C0.33 0 0.66 0 1 0 C1 1.65 1 3.3 1 5 C3.64 5.33 6.28 5.66 9 6 C9 6.33 9 6.66 9 7 C7.02 7 5.04 7 3 7 C3 7.99 3 8.98 3 10 C2.34 10 1.68 10 1 10 C-0.60725635 6.78548731 -0.05748185 3.56387464 0 0 Z " fill="#8CB472" transform="translate(109,142)"/>
<path d="M0 0 C1.258125 -0.04125 2.51625 -0.0825 3.8125 -0.125 C4.52019531 -0.14820312 5.22789063 -0.17140625 5.95703125 -0.1953125 C8 0 8 0 11 2 C8.36 2 5.72 2 3 2 C3 2.66 3 3.32 3 4 C2.01 3.67 1.02 3.34 0 3 C0 2.01 0 1.02 0 0 Z " fill="#BBC3C4" transform="translate(93,118)"/>
<path d="M0 0 C2.31 0.33 4.62 0.66 7 1 C7 2.65 7 4.3 7 6 C6.34 5.34 5.68 4.68 5 4 C2.42938689 3.35232207 2.42938689 3.35232207 0 3 C0 2.01 0 1.02 0 0 Z " fill="#CEB69A" transform="translate(128,98)"/>
<path d="M0 0 C0.66 0.33 1.32 0.66 2 1 C1.525625 1.7425 1.05125 2.485 0.5625 3.25 C-0.77869327 5.61050015 -1.512312 7.36648477 -2 10 C-3.32 9.67 -4.64 9.34 -6 9 C-5.67 8.34 -5.34 7.68 -5 7 C-4.34 7 -3.68 7 -3 7 C-2.87625 6.030625 -2.7525 5.06125 -2.625 4.0625 C-2.41875 3.051875 -2.2125 2.04125 -2 1 C-1.34 0.67 -0.68 0.34 0 0 Z " fill="#4C7F6C" transform="translate(118,74)"/>
<path d="M0 0 C0.99 0.33 1.98 0.66 3 1 C3.33 2.65 3.66 4.3 4 6 C2.68 6.33 1.36 6.66 0 7 C0 4.69 0 2.38 0 0 Z " fill="#9EA679" transform="translate(67,106)"/>
<path d="M0 0 C0.99 0 1.98 0 3 0 C2.67 1.98 2.34 3.96 2 6 C1.01 6.33 0.02 6.66 -1 7 C-1.04254356 5.00045254 -1.04080783 2.99958364 -1 1 C-0.67 0.67 -0.34 0.34 0 0 Z " fill="#475D46" transform="translate(130,101)"/>
<path d="M0 0 C1.65 0 3.3 0 5 0 C6 3 6 3 4.5625 6.1875 C3.7890625 7.5796875 3.7890625 7.5796875 3 9 C2.17361624 6.10765685 2 4.11257569 2 1 C1.34 0.67 0.68 0.34 0 0 Z " fill="#CEB58F" transform="translate(111,71)"/>
<path d="M0 0 C1.32 0.33 2.64 0.66 4 1 C3.01 1 2.02 1 1 1 C1.33 2.32 1.66 3.64 2 5 C0.02 5 -1.96 5 -4 5 C-4 4.01 -4 3.02 -4 2 C-2.68 2 -1.36 2 0 2 C0 1.34 0 0.68 0 0 Z " fill="#454E3F" transform="translate(96,153)"/>
<path d="M0 0 C0.33 0 0.66 0 1 0 C1 3.3 1 6.6 1 10 C-0.32 10 -1.64 10 -3 10 C-2.01 6.7 -1.02 3.4 0 0 Z " fill="#88A15C" transform="translate(72,144)"/>
<path d="M0 0 C2.875 0.25 2.875 0.25 6 1 C8.24329772 3.85510619 8.19667385 6.45987077 8 10 C6 7 6 7 4.5625 4.4375 C3.0772081 1.76176498 3.0772081 1.76176498 0 0 Z " fill="#91958F" transform="translate(108,123)"/>
<path d="M0 0 C1.09054688 0.02320313 2.18109375 0.04640625 3.3046875 0.0703125 C4.40039062 0.08835938 5.49609375 0.10640625 6.625 0.125 C7.46804687 0.14820313 8.31109375 0.17140625 9.1796875 0.1953125 C9.1796875 1.1853125 9.1796875 2.1753125 9.1796875 3.1953125 C8.62796875 3.03160156 8.07625 2.86789063 7.5078125 2.69921875 C4.91354743 2.13770836 2.58133339 2.09792242 -0.0703125 2.1328125 C-1.40835938 2.14634766 -1.40835938 2.14634766 -2.7734375 2.16015625 C-3.44890625 2.17175781 -4.124375 2.18335938 -4.8203125 2.1953125 C-2.8203125 0.1953125 -2.8203125 0.1953125 0 0 Z " fill="#64976D" transform="translate(102.8203125,56.8046875)"/>
<path d="M0 0 C0 0.66 0 1.32 0 2 C1.32 2.33 2.64 2.66 4 3 C1.47946405 4.26026798 0.1457902 3.91874445 -2.625 3.5625 C-3.85089844 3.40974609 -3.85089844 3.40974609 -5.1015625 3.25390625 C-6.04128906 3.12822266 -6.04128906 3.12822266 -7 3 C-7 2.34 -7 1.68 -7 1 C-3.375 -1.125 -3.375 -1.125 0 0 Z " fill="#47725F" transform="translate(79,165)"/>
<path d="M0 0 C0.33 0 0.66 0 1 0 C1 1.65 1 3.3 1 5 C1.66 5 2.32 5 3 5 C2.625 7.4375 2.625 7.4375 2 10 C1.01 10.495 1.01 10.495 0 11 C0 7.37 0 3.74 0 0 Z " fill="#6C847E" transform="translate(125,135)"/>
<path d="M0 0 C0.99 0.33 1.98 0.66 3 1 C2.34 2.32 1.68 3.64 1 5 C-0.32 4.67 -1.64 4.34 -3 4 C-3 3.34 -3 2.68 -3 2 C-2.01 1.34 -1.02 0.68 0 0 Z " fill="#88A478" transform="translate(77,131)"/>
<path d="M0 0 C0.66 0.33 1.32 0.66 2 1 C2 2.32 2 3.64 2 5 C0.35 5 -1.3 5 -3 5 C-1.125 1.125 -1.125 1.125 0 0 Z " fill="#427E67" transform="translate(174,163)"/>
<path d="M0 0 C2.16874252 0.50603992 3.99967627 0.99983813 6 2 C6 2.66 6 3.32 6 4 C4.35 4.33 2.7 4.66 1 5 C0.67 3.35 0.34 1.7 0 0 Z " fill="#374431" transform="translate(97,154)"/>
<path d="M0 0 C0.598125 0.20625 1.19625 0.4125 1.8125 0.625 C0.4925 0.955 -0.8275 1.285 -2.1875 1.625 C-2.1875 2.285 -2.1875 2.945 -2.1875 3.625 C-2.8475 3.625 -3.5075 3.625 -4.1875 3.625 C-4.1875 4.285 -4.1875 4.945 -4.1875 5.625 C-4.8475 5.625 -5.5075 5.625 -6.1875 5.625 C-5.875 3.75 -5.875 3.75 -5.1875 1.625 C-2.1875 -0.375 -2.1875 -0.375 0 0 Z " fill="#97B464" transform="translate(84.1875,138.375)"/>
<path d="M0 0 C0.66 0 1.32 0 2 0 C2 2.31 2 4.62 2 7 C1.01 7.33 0.02 7.66 -1 8 C-0.67 5.36 -0.34 2.72 0 0 Z " fill="#41765A" transform="translate(113,134)"/>
<path d="M0 0 C1.85776765 3.13498292 2.20140476 5.37471432 2 9 C1.01 8.67 0.02 8.34 -1 8 C-0.67 5.36 -0.34 2.72 0 0 Z " fill="#AEB5B1" transform="translate(121,128)"/>
<path d="M0 0 C1.32 0 2.64 0 4 0 C4 1.98 4 3.96 4 6 C2 4.6875 2 4.6875 0 3 C0 2.01 0 1.02 0 0 Z " fill="#D5BC9D" transform="translate(96,76)"/>
<path d="M0 0 C1.32 0.33 2.64 0.66 4 1 C4.33 2.32 4.66 3.64 5 5 C3.68 4.67 2.36 4.34 1 4 C0.67 2.68 0.34 1.36 0 0 Z " fill="#B7BFB4" transform="translate(154,149)"/>
<path d="M0 0 C2 4 2 4 2 8 C1.34 8 0.68 8 0 8 C-0.33 8.66 -0.66 9.32 -1 10 C-0.67 6.7 -0.34 3.4 0 0 Z " fill="#8FA769" transform="translate(132,128)"/>
<path d="M0 0 C0.125 2.875 0.125 2.875 0 6 C-0.66 6.66 -1.32 7.32 -2 8 C-2.66 6.35 -3.32 4.7 -4 3 C-1.125 0 -1.125 0 0 0 Z " fill="#757457" transform="translate(72,110)"/>
</svg>
