<?xml version="1.0" encoding="UTF-8"?>
<svg version="1.1" xmlns="http://www.w3.org/2000/svg" width="200" height="200">
<path d="M0 0 C66 0 132 0 200 0 C200 66 200 132 200 200 C134 200 68 200 0 200 C0 134 0 68 0 0 Z " fill="#2977C7" transform="translate(0,0)"/>
<path d="M0 0 C0.7734375 0.8971875 0.7734375 0.8971875 1.5625 1.8125 C4.56533687 4.5073536 7.24873609 5.55720619 11 7 C11 7.66 11 8.32 11 9 C11.66 9 12.32 9 13 9 C13.99 9.99 13.99 9.99 15 11 C15.99 11.495 15.99 11.495 17 12 C17.94958865 13.90205485 18.81257074 15.84794154 19.625 17.8125 C20.29402344 19.39998047 20.29402344 19.39998047 20.9765625 21.01953125 C22 24 22 24 22 28 C22.66 28 23.32 28 24 28 C24.84442881 29.89091736 25.67511587 31.78797515 26.5 33.6875 C27.19609375 35.27111328 27.19609375 35.27111328 27.90625 36.88671875 C28.94950801 39.85627816 29.23065301 41.89195063 29 45 C30.32 45 31.64 45 33 45 C35.01934001 50.35125104 37.03203772 55.70491683 38.94921875 61.09375 C39.64680105 63.02312259 40.37852776 64.94050584 41.14453125 66.84375 C44.40804586 75.42344919 45.75682238 84.54515822 43.3046875 93.5546875 C41.20586105 98.22854472 38.21796693 101.15932839 34 104 C31.25 104.6875 31.25 104.6875 29 105 C28.34 105.66 27.68 106.32 27 107 C24.6171875 107.1953125 24.6171875 107.1953125 21.875 107.125 C20.96492188 107.10695313 20.05484375 107.08890625 19.1171875 107.0703125 C18.41851562 107.04710937 17.71984375 107.02390625 17 107 C17 107.66 17 108.32 17 109 C9.51185217 110.92034759 2.28519194 112.34874076 -5.44140625 112.7890625 C-7.94279443 112.92554389 -7.94279443 112.92554389 -10.08984375 113.5234375 C-12 114 -12 114 -16 114 C-16 114.66 -16 115.32 -16 116 C-21.78357065 118.01167675 -26.90218999 118.22084624 -33 118 C-33 118.66 -33 119.32 -33 120 C-35.74951693 120.22212255 -38.49865612 120.42815588 -41.25 120.625 C-42.02730469 120.68945312 -42.80460937 120.75390625 -43.60546875 120.8203125 C-47.72987019 121.10232285 -50.36537105 121.21316515 -54 119 C-54.99 119.495 -54.99 119.495 -56 120 C-63.29106331 118.67840197 -68.81058459 115.14828145 -73.296875 109.31323242 C-76.9053582 103.81629992 -78.62362927 98.33447408 -80.25 92 C-80.84037978 89.80057548 -81.4315689 87.6013681 -82.0234375 85.40234375 C-82.49281738 83.63479736 -82.49281738 83.63479736 -82.97167969 81.83154297 C-84.68448619 75.44959016 -86.4751039 69.08965457 -88.26599121 62.72924805 C-88.86933294 60.58266242 -89.46870688 58.43500037 -90.06738281 56.28710938 C-90.43804093 54.96351083 -90.80880401 53.63994166 -91.1796875 52.31640625 C-91.50694824 51.14537354 -91.83420898 49.97434082 -92.17138672 48.76782227 C-92.89153531 46.0736733 -92.89153531 46.0736733 -94 44 C-95.55323107 35.54351972 -95.51767454 29.17952045 -91.32421875 21.59765625 C-84.74712091 14.24678219 -77.51876859 10.93999564 -67.9375 9.375 C-66.87893799 9.18389648 -65.82037598 8.99279297 -64.72973633 8.79589844 C-61.15785528 8.16524981 -57.58043355 7.58003395 -54 7 C-52.6476644 6.77384064 -51.29545378 6.54693288 -49.94335938 6.31933594 C-34.77085311 3.77754125 -19.72444365 1.47466691 -4.3125 1.140625 C-1.15524334 1.38073627 -1.15524334 1.38073627 0 0 Z " fill="#2E8BD1" transform="translate(127,36)"/>
<path d="M0 0 C5.86672954 4.06089089 11.22328616 8.89314465 13 16 C14.12346381 24.31164379 13.54574896 30.70217575 8.99609375 37.81640625 C3.82422447 43.47408713 -1.4357628 45.85370221 -8.875 47.3125 C-9.62652344 47.48072266 -10.37804687 47.64894531 -11.15234375 47.82226562 C-16.35383659 48.91520366 -21.7002783 49.82503848 -27 49 C-30.76726689 46.46013297 -31.88947546 43.36854081 -33.25 39.125 C-33.58515625 38.11695313 -33.9203125 37.10890625 -34.265625 36.0703125 C-35.01627996 32.93193591 -35.13431155 30.21388355 -35 27 C-35.82242188 27.04640625 -36.64484375 27.0928125 -37.4921875 27.140625 C-47.47686317 27.46345516 -55.455078 25.64611884 -63.4609375 19.48046875 C-66.29502846 16.75427466 -68.56128624 13.66639959 -70 10 C-70.03379317 8.00028551 -70.03697706 5.99965815 -70 4 C-68.72358643 3.79318604 -67.44717285 3.58637207 -66.13208008 3.37329102 C-61.38892847 2.60452177 -56.64597336 1.83454613 -51.90307617 1.06420898 C-49.85169718 0.73119818 -47.80026531 0.39851298 -45.7487793 0.06616211 C-42.79722294 -0.41206293 -39.84585979 -0.89146502 -36.89453125 -1.37109375 C-35.97976517 -1.51904892 -35.06499908 -1.66700409 -34.12251282 -1.81944275 C-10.70789919 -5.63074167 -10.70789919 -5.63074167 0 0 Z " fill="#CCCCCC" transform="translate(128,67)"/>
<path d="M0 0 C3.46941546 0.45822468 6.67395049 0.89131683 10 2 C10 1.34 10 0.68 10 0 C13 1 13 1 14 3 C14.99 3.33 15.98 3.66 17 4 C20.58105382 9.10542133 19.71720645 16.11636831 19 22 C16.46859755 28.83748919 12.33542046 33.48705324 6 37 C3.08722845 38.06498948 0.16462141 38.71644521 -2.875 39.3125 C-3.62652344 39.48072266 -4.37804687 39.64894531 -5.15234375 39.82226562 C-10.35383659 40.91520366 -15.7002783 41.82503848 -21 41 C-24.76726689 38.46013297 -25.88947546 35.36854081 -27.25 31.125 C-27.75273438 29.61292969 -27.75273438 29.61292969 -28.265625 28.0703125 C-29.01627996 24.93193591 -29.13431155 22.21388355 -29 19 C-29.82242188 19.04640625 -30.64484375 19.0928125 -31.4921875 19.140625 C-42.74806777 19.50455646 -50.1979312 16.88857559 -59 10 C-58.34 9.34 -57.68 8.68 -57 8 C-56.67 8.66 -56.34 9.32 -56 10 C-53.66792049 10.9816151 -51.39695865 11.83531212 -49 12.625 C-48.31881104 12.85010254 -47.63762207 13.07520508 -46.93579102 13.30712891 C-40.83061049 15.22455415 -35.75815376 15.72702379 -29.375 14.4921875 C-16.21639203 12.57322384 -2.81713569 13.69235208 10 17 C10 16.34 10 15.68 10 15 C11.98 14.34 13.96 13.68 16 13 C15.01 10.03 15.01 10.03 14 7 C13.34 7 12.68 7 12 7 C12 6.34 12 5.68 12 5 C11.07767578 4.70996094 11.07767578 4.70996094 10.13671875 4.4140625 C8.92435547 4.02347656 8.92435547 4.02347656 7.6875 3.625 C6.88699219 3.36976562 6.08648437 3.11453125 5.26171875 2.8515625 C3 2 3 2 0 0 Z " fill="#C5C6C8" transform="translate(122,75)"/>
<path d="M0 0 C0.99 0.33 1.98 0.66 3 1 C2.01 1.33 1.02 1.66 0 2 C-0.268125 2.639375 -0.53625 3.27875 -0.8125 3.9375 C-2 6 -2 6 -4.8125 7.1875 C-8 8 -8 8 -10.8125 8.5 C-11.8953125 8.7475 -11.8953125 8.7475 -13 9 C-13.33 9.66 -13.66 10.32 -14 11 C-14 10.34 -14 9.68 -14 9 C-14.495 9.309375 -14.99 9.61875 -15.5 9.9375 C-17.88675665 10.95187158 -19.6374458 11.27865196 -22.1875 11.5625 C-25.78190939 11.57461534 -25.78190939 11.57461534 -27 13 C-23.7 13.99 -20.4 14.98 -17 16 C-20 18 -20 18 -22 18 C-22.495 17.01 -22.495 17.01 -23 16 C-24.98 16 -26.96 16 -29 16 C-29 16.66 -29 17.32 -29 18 C-32.41664873 18.02908357 -35.8332655 18.04682691 -39.25 18.0625 C-40.21808594 18.07087891 -41.18617187 18.07925781 -42.18359375 18.08789062 C-43.11816406 18.09111328 -44.05273438 18.09433594 -45.015625 18.09765625 C-45.87446289 18.10289307 -46.73330078 18.10812988 -47.61816406 18.11352539 C-49.88670744 18.00539986 -51.82631715 17.63582423 -54 17 C-54.33 17.66 -54.66 18.32 -55 19 C-63.415 19.495 -63.415 19.495 -72 20 C-68.80025278 20.79993681 -66.85574888 21.10457823 -63.68359375 21.02734375 C-62.42639526 21.00692017 -62.42639526 21.00692017 -61.14379883 20.98608398 C-59.80418091 20.96203491 -59.80418091 20.96203491 -58.4375 20.9375 C-51.00237725 20.86528908 -43.70623454 21.1364942 -36.3125 21.9375 C-35.50546631 22.02443115 -34.69843262 22.1113623 -33.86694336 22.20092773 C-28.29256481 22.8537176 -28.29256481 22.8537176 -26 24 C-24.32706064 23.69972883 -22.66014616 23.36442233 -21 23 C-19 23 -17 23 -15 23 C-15.495 23.495 -15.495 23.495 -16 24 C-14.35 24.66 -12.7 25.32 -11 26 C-11.495 27.485 -11.495 27.485 -12 29 C-19.52935273 29.0702576 -27.05867048 29.12318836 -34.58827877 29.15543652 C-38.0865602 29.17093286 -41.58461349 29.19186759 -45.08276367 29.22631836 C-84.27230125 29.60163062 -84.27230125 29.60163062 -90.93725586 24.52416992 C-92 23 -92 23 -91.75 20.9375 C-91 19 -91 19 -90 17 C-92.31 16.34 -94.62 15.68 -97 15 C-97 14.01 -97 13.02 -97 12 C-98.98 11.34 -100.96 10.68 -103 10 C-102.67 8.35 -102.34 6.7 -102 5 C-101.30777344 5.59748047 -101.30777344 5.59748047 -100.6015625 6.20703125 C-94.78683115 10.93006403 -88.62653529 14 -81 14 C-79.84371094 14.26296875 -79.84371094 14.26296875 -78.6640625 14.53125 C-75.7187993 15.04947813 -73.3370262 14.85903348 -70.375 14.5 C-66.99264137 14.09226362 -65.27196214 13.90934595 -62 15 C-62 14.34 -62 13.68 -62 13 C-61.35933594 12.93941406 -60.71867187 12.87882813 -60.05859375 12.81640625 C-55.01576687 12.32790588 -50.0087898 11.76220714 -45 11 C-45 10.34 -45 9.68 -45 9 C-39.97016635 7.89771731 -35.01012531 6.93855884 -29.875 6.5 C-26.70162311 6.22600357 -23.76390208 5.76287617 -20.6875 4.9375 C-17.56768648 4.14432707 -15.18092352 3.80119228 -12 4 C-12 3.34 -12 2.68 -12 2 C-10.95199219 1.90912109 -10.95199219 1.90912109 -9.8828125 1.81640625 C-8.97273438 1.73261719 -8.06265625 1.64882812 -7.125 1.5625 C-6.22007812 1.48128906 -5.31515625 1.40007812 -4.3828125 1.31640625 C-1.98889139 1.13010715 -1.98889139 1.13010715 0 0 Z M-19 25 C-19.33 25.66 -19.66 26.32 -20 27 C-19.01 27 -18.02 27 -17 27 C-17 26.34 -17 25.68 -17 25 C-17.66 25 -18.32 25 -19 25 Z " fill="#053574" transform="translate(156,141)"/>
<path d="M0 0 C8.33395772 5.98084025 8.33395772 5.98084025 9.7421875 10.25 C9.82726562 10.8275 9.91234375 11.405 10 12 C9.01 11.67 8.02 11.34 7 11 C5.8125 8.4375 5.8125 8.4375 5 6 C3.32357422 6.22042969 3.32357422 6.22042969 1.61328125 6.4453125 C-2.31978747 6.93748575 -6.25569367 7.30339786 -10.20410156 7.64697266 C-18.12430219 8.33936009 -25.91871672 9.25156088 -33.75 10.625 C-42.5468454 12.15154948 -51.09387379 12.30789425 -60 12 C-57.36 12.66 -54.72 13.32 -52 14 C-52 14.99 -52 15.98 -52 17 C-52.99 17 -53.98 17 -55 17 C-56.68798827 18.43750191 -56.68798827 18.43750191 -58 20 C-62.67771937 18.3962105 -66.43193527 16.24009247 -69.3125 12.125 C-70.20311882 9.3721782 -70.04311811 6.87715379 -70 4 C-68.72358643 3.79318604 -67.44717285 3.58637207 -66.13208008 3.37329102 C-61.38892847 2.60452177 -56.64597336 1.83454613 -51.90307617 1.06420898 C-49.85169718 0.73119818 -47.80026531 0.39851298 -45.7487793 0.06616211 C-42.79722294 -0.41206293 -39.84585979 -0.89146502 -36.89453125 -1.37109375 C-35.97976517 -1.51904892 -35.06499908 -1.66700409 -34.12251282 -1.81944275 C-10.65278955 -5.63971211 -10.65278955 -5.63971211 0 0 Z " fill="#D2D6D9" transform="translate(128,67)"/>
<path d="M0 0 C0.69222656 0.59748047 0.69222656 0.59748047 1.3984375 1.20703125 C7.21316885 5.93006403 13.37346471 9 21 9 C22.15628906 9.26296875 22.15628906 9.26296875 23.3359375 9.53125 C26.2812007 10.04947813 28.6629738 9.85903348 31.625 9.5 C35.00735863 9.09226362 36.72803786 8.90934595 40 10 C40 9.34 40 8.68 40 8 C43.3 8 46.6 8 50 8 C41.54480133 12.22759934 32.35897381 13.46572787 23 14 C23.33 14.99 23.66 15.98 24 17 C29.29023273 19.57726536 34.72580984 19.27350398 40.47265625 19.23046875 C41.97366127 19.22978142 41.97366127 19.22978142 43.50498962 19.2290802 C45.61377147 19.22606785 47.72255129 19.2182121 49.83129883 19.20581055 C53.05493064 19.18754289 56.27827491 19.18530115 59.50195312 19.18554688 C61.55468998 19.18063145 63.60742489 19.17480302 65.66015625 19.16796875 C67.10250389 19.16629951 67.10250389 19.16629951 68.57398987 19.16459656 C69.47520065 19.15821671 70.37641144 19.15183685 71.30493164 19.14526367 C72.09291641 19.14145187 72.88090118 19.13764008 73.69276428 19.13371277 C76.20177445 18.98830643 78.54071725 18.50429584 81 18 C83 18 85 18 87 18 C86.505 18.495 86.505 18.495 86 19 C87.65 19.66 89.3 20.32 91 21 C90.505 22.485 90.505 22.485 90 24 C82.47064727 24.0702576 74.94132952 24.12318836 67.41172123 24.15543652 C63.9134398 24.17093286 60.41538651 24.19186759 56.91723633 24.22631836 C17.72769875 24.60163062 17.72769875 24.60163062 11.06274414 19.52416992 C10 18 10 18 10.25 15.9375 C11 14 11 14 12 12 C9.69 11.34 7.38 10.68 5 10 C5 9.01 5 8.02 5 7 C3.02 6.34 1.04 5.68 -1 5 C-0.67 3.35 -0.34 1.7 0 0 Z M83 20 C82.67 20.66 82.34 21.32 82 22 C82.99 22 83.98 22 85 22 C85 21.34 85 20.68 85 20 C84.34 20 83.68 20 83 20 Z " fill="#0D4894" transform="translate(54,146)"/>
<path d="M0 0 C0.92377441 0.14219971 1.84754883 0.28439941 2.79931641 0.4309082 C17.87795546 2.52463321 33.02134834 2.26752738 48.20721436 2.19561768 C51.12533713 2.18469022 54.04341385 2.18515241 56.96155357 2.18575573 C59.78568843 2.18548407 62.60979316 2.18000725 65.433918 2.17275429 C67.42366422 2.16805675 69.41341669 2.1662986 71.40316772 2.16459656 C73.20752792 2.15502678 73.20752792 2.15502678 75.04833984 2.14526367 C76.10435394 2.14145187 77.16036804 2.13764008 78.24838257 2.13371277 C80.66526069 2.0162664 82.69292159 1.69568705 85 1 C85 1.66 85 2.32 85 3 C85.99 3.33 86.98 3.66 88 4 C84.33390307 5.69458077 81.76226951 6.15604541 77.75 5.9375 C71.20627045 5.81278767 64.97636402 6.60827902 58.5 7.5 C48.83383298 8.77720682 39.31239992 9.30254096 29.5625 9.3125 C28.36109375 9.31765625 27.1596875 9.3228125 25.921875 9.328125 C19.05467303 9.27417392 12.66892312 8.66270996 6 7 C6 6.34 6 5.68 6 5 C4.68 5 3.36 5 2 5 C1.34 3.35 0.68 1.7 0 0 Z " fill="#1373C9" transform="translate(66,167)"/>
<path d="M0 0 C0.66 0.66 1.32 1.32 2 2 C10.7866932 5.58418882 19.04125941 8.36876129 28.6015625 6.48828125 C33.1841063 5.82986978 37.68884352 5.81577223 42.3125 5.8125 C43.21162109 5.80025391 44.11074219 5.78800781 45.03710938 5.77539062 C52.76846766 5.75861978 59.91595463 6.76157926 67 10 C67.7425 10.33 68.485 10.66 69.25 11 C71 12 71 12 72 14 C71.46769775 13.7827124 70.93539551 13.5654248 70.38696289 13.34155273 C59.16366399 9.51047495 47.05723317 10.85283267 35.3762207 11.13696289 C32.39537418 11.20378942 29.41490673 11.24542504 26.43359375 11.28515625 C25.53539413 11.31521255 24.63719452 11.34526886 23.71177673 11.37623596 C13.98077105 11.48860899 6.55488015 7.9125149 -1 2 C-0.67 1.34 -0.34 0.68 0 0 Z " fill="#969FB0" transform="translate(64,83)"/>
<path d="M0 0 C-1.22254017 5.66814077 -2.77621206 7.88736437 -7 12 C-7 13.32 -7 14.64 -7 16 C-7.721875 15.896875 -8.44375 15.79375 -9.1875 15.6875 C-12.22287297 15.72832273 -12.22287297 15.72832273 -14.375 18.375 C-19.16618189 23.16618189 -25.89374466 23.4156778 -32.3515625 24.53515625 C-34.14617434 24.85013974 -35.93134557 25.22341527 -37.703125 25.6484375 C-40 26 -40 26 -42.125 24.5625 C-42.74375 24.046875 -43.3625 23.53125 -44 23 C-44.99 23 -45.98 23 -47 23 C-47.33 21.68 -47.66 20.36 -48 19 C-46.79730469 19.06960937 -46.79730469 19.06960937 -45.5703125 19.140625 C-38.29999049 19.37142887 -31.66366503 18.82188374 -24.5625 17.3125 C-23.81822754 17.16393555 -23.07395508 17.01537109 -22.30712891 16.86230469 C-16.57339272 15.54872513 -11.21861887 13.23322842 -7.7902832 8.23706055 C-6.82556872 6.51026463 -5.910509 4.75598164 -5 3 C-2.48387097 0 -2.48387097 0 0 0 Z " fill="#2A70B7" transform="translate(144,96)"/>
<path d="M0 0 C0 0.33 0 0.66 0 1 C-2.58302634 1.31522715 -5.16634526 1.62749415 -7.75 1.9375 C-8.90677246 2.0778064 -8.90677246 2.0778064 -10.08691406 2.22094727 C-15.54694679 2.86914185 -20.98951393 3.3152499 -26.484375 3.55859375 C-29.50906703 4.08932387 -31.44360117 5.33596973 -34 7 C-36.3125 7.6875 -36.3125 7.6875 -38 8 C-37.67 7.01 -37.34 6.02 -37 5 C-40.72614153 6.11854586 -40.72614153 6.11854586 -43 9 C-44.3921875 8.690625 -44.3921875 8.690625 -45.8125 8.375 C-50.12632719 7.74879928 -53.9214971 8.58608468 -58.15234375 9.46484375 C-60.90827929 9.98276305 -63.58003977 10.24172782 -66.375 10.4375 C-70.29598124 10.78547932 -72.80160155 11.57697087 -76 14 C-79.53129854 16.35419902 -82.98964713 17.66321571 -87 19 C-84.9108515 14.10820842 -81.70592961 12.22998755 -77 10 C-73.40264959 8.85386577 -69.7768283 8.15866462 -66.0625 7.5 C-64.46220947 7.20089722 -64.46220947 7.20089722 -62.82958984 6.89575195 C-59.22393885 6.2369334 -55.61345506 5.61453317 -52 5 C-50.63948465 4.76481714 -49.27897035 4.52962818 -47.91845703 4.29443359 C-31.95214749 1.55759378 -16.2594243 -0.95394276 0 0 Z " fill="#7DBAEF" transform="translate(125,38)"/>
<path d="M0 0 C0.99 0.33 1.98 0.66 3 1 C2.01 1.33 1.02 1.66 0 2 C-0.268125 2.639375 -0.53625 3.27875 -0.8125 3.9375 C-2 6 -2 6 -4.8125 7.1875 C-8 8 -8 8 -10.8125 8.5 C-11.534375 8.665 -12.25625 8.83 -13 9 C-13.33 9.66 -13.66 10.32 -14 11 C-14 10.34 -14 9.68 -14 9 C-14.515625 9.33 -15.03125 9.66 -15.5625 10 C-18.78026512 11.32010877 -21.5570528 11.13242105 -25 11 C-24.34 10.34 -23.68 9.68 -23 9 C-27.91278951 8.80348842 -31.39115024 9.40462893 -36 11 C-41.35204849 12.17001946 -46.5064948 13.13907608 -52 13 C-50 11 -50 11 -47.375 10.875 C-46.59125 10.91625 -45.8075 10.9575 -45 11 C-45 10.34 -45 9.68 -45 9 C-39.97016635 7.89771731 -35.01012531 6.93855884 -29.875 6.5 C-26.70162311 6.22600357 -23.76390208 5.76287617 -20.6875 4.9375 C-17.56768648 4.14432707 -15.18092352 3.80119228 -12 4 C-12 3.34 -12 2.68 -12 2 C-10.95199219 1.90912109 -10.95199219 1.90912109 -9.8828125 1.81640625 C-8.97273438 1.73261719 -8.06265625 1.64882812 -7.125 1.5625 C-6.22007812 1.48128906 -5.31515625 1.40007812 -4.3828125 1.31640625 C-1.98889139 1.13010715 -1.98889139 1.13010715 0 0 Z " fill="#05459A" transform="translate(156,141)"/>
<path d="M0 0 C0.97888184 0.13712402 1.95776367 0.27424805 2.96630859 0.41552734 C17.16054487 2.26423705 31.32838549 2.44003032 45.625 2.625 C48.0963664 2.66328055 50.5677209 2.70233769 53.0390625 2.7421875 C59.0259342 2.83706263 65.01288059 2.92241084 71 3 C71 3.33 71 3.66 71 4 C58.86443419 6.7491713 45.70558969 6.18655285 33.31445312 6.18530273 C30.84228251 6.18752947 28.37053214 6.20589611 25.8984375 6.22460938 C24.30468899 6.22753763 22.71093842 6.22952622 21.1171875 6.23046875 C20.02493362 6.24124702 20.02493362 6.24124702 18.91061401 6.25224304 C14.55092301 6.23276619 11.0547385 5.58350511 7 4 C5.71133069 3.61482578 4.4201876 3.23765253 3.125 2.875 C2.09375 2.58625 1.0625 2.2975 0 2 C0 1.34 0 0.68 0 0 Z " fill="#1161B9" transform="translate(66,167)"/>
<path d="M0 0 C0.66 0.33 1.32 0.66 2 1 C-0.475 2.485 -0.475 2.485 -3 4 C-3 3.34 -3 2.68 -3 2 C-2.01 1.34 -1.02 0.68 0 0 Z M-72 3 C-71.16186768 3.0721875 -70.32373535 3.144375 -69.46020508 3.21875 C-55.87380937 4.23686799 -42.30418987 4.07700814 -28.6875 4 C-23.89974211 3.97343473 -19.11202225 3.9534845 -14.32421875 3.9375 C-13.23058517 3.92920166 -12.1369516 3.92090332 -11.01017761 3.91235352 C-9.49633232 3.90739868 -9.49633232 3.90739868 -7.9519043 3.90234375 C-7.0652861 3.89710693 -6.17866791 3.89187012 -5.2651825 3.88647461 C-3 4 -3 4 0 5 C0 4.34 0 3.68 0 3 C2.97 3.495 2.97 3.495 6 4 C5.67 4.99 5.34 5.98 5 7 C-2.52935273 7.0702576 -10.05867048 7.12318836 -17.58827877 7.15543652 C-21.0865602 7.17093286 -24.58461349 7.19186759 -28.08276367 7.22631836 C-57.80183089 7.51160219 -57.80183089 7.51160219 -72 4 C-72 3.67 -72 3.34 -72 3 Z " fill="#0F53A6" transform="translate(139,163)"/>
<path d="M0 0 C0.69222656 0.59748047 0.69222656 0.59748047 1.3984375 1.20703125 C7.21316885 5.93006403 13.37346471 9 21 9 C22.15628906 9.26296875 22.15628906 9.26296875 23.3359375 9.53125 C26.2812007 10.04947813 28.6629738 9.85903348 31.625 9.5 C35.00735863 9.09226362 36.72803786 8.90934595 40 10 C40 9.34 40 8.68 40 8 C43.3 8 46.6 8 50 8 C41.84265017 12.07867492 33.92363626 12.4623908 24.9375 12.8125 C23.79216797 12.87630859 22.64683594 12.94011719 21.46679688 13.00585938 C15.11985 13.26649166 10.58450467 13.13672469 5 10 C5 9.01 5 8.02 5 7 C3.02 6.34 1.04 5.68 -1 5 C-0.67 3.35 -0.34 1.7 0 0 Z " fill="#0754A2" transform="translate(54,146)"/>
<path d="M0 0 C1.85625 0.0309375 1.85625 0.0309375 3.75 0.0625 C2.1 1.7125 0.45 3.3625 -1.25 5.0625 C2.05 6.0525 5.35 7.0425 8.75 8.0625 C5.75 10.0625 5.75 10.0625 3.75 10.0625 C3.42 9.4025 3.09 8.7425 2.75 8.0625 C0.77 8.0625 -1.21 8.0625 -3.25 8.0625 C-3.25 8.7225 -3.25 9.3825 -3.25 10.0625 C-4.91611905 10.105221 -6.58382885 10.10313832 -8.25 10.0625 C-8.58 9.7325 -8.91 9.4025 -9.25 9.0625 C-10.59747084 8.83174918 -11.95377565 8.65096937 -13.3125 8.5 C-14.611875 8.355625 -15.91125 8.21125 -17.25 8.0625 C-16.92 7.4025 -16.59 6.7425 -16.25 6.0625 C-15.26 6.0625 -14.27 6.0625 -13.25 6.0625 C-13.25 5.4025 -13.25 4.7425 -13.25 4.0625 C-15.89 4.3925 -18.53 4.7225 -21.25 5.0625 C-18.288701 3.08830067 -16.72586427 2.61081255 -13.3125 2 C-9.73356402 1.3533501 -9.73356402 1.3533501 -6.19921875 0.5078125 C-4.06981435 0.02133534 -2.18081805 -0.03634697 0 0 Z " fill="#033C86" transform="translate(130.25,148.9375)"/>
<path d="M0 0 C0.96421875 0.56589844 1.9284375 1.13179688 2.921875 1.71484375 C4.19776699 2.45598689 5.47381699 3.19685807 6.75 3.9375 C7.38421875 4.31068359 8.0184375 4.68386719 8.671875 5.06835938 C13.41555117 7.81079716 16.88590012 9.13652928 22.328125 9.09765625 C23.12734375 9.09443359 23.9265625 9.09121094 24.75 9.08789062 C25.575 9.07951172 26.4 9.07113281 27.25 9.0625 C28.09046875 9.05798828 28.9309375 9.05347656 29.796875 9.04882812 C31.86461401 9.03707961 33.93231624 9.01914522 36 9 C36 9.33 36 9.66 36 10 C34.35 10 32.7 10 31 10 C30.67 10.99 30.34 11.98 30 13 C29.34 13 28.68 13 28 13 C27.67 13.66 27.34 14.32 27 15 C18.81681586 14.80847867 11.53966473 12.91384662 5.21484375 7.4609375 C4 6 4 6 4 4 C2.68 3.34 1.36 2.68 0 2 C0 1.34 0 0.68 0 0 Z " fill="#2A71BA" transform="translate(62,84)"/>
<path d="M0 0 C0.66 0.66 1.32 1.32 2 2 C10.75444771 5.57103553 19.04152068 8.40864193 28.56640625 6.48046875 C33.34535565 5.81174204 38.05661837 5.89506168 42.875 5.9375 C43.84953125 5.94201172 44.8240625 5.94652344 45.828125 5.95117188 C48.21881434 5.96289094 50.6093744 5.97929781 53 6 C53 6.33 53 6.66 53 7 C49.09055899 7.43558371 45.18025783 7.86237389 41.26904297 8.28173828 C39.29997229 8.49459792 37.33161353 8.71401095 35.36328125 8.93359375 C12.66569238 11.35313368 12.66569238 11.35313368 5.875 7.1875 C4.98554687 6.66542969 4.09609375 6.14335938 3.1796875 5.60546875 C1 4 1 4 -1 1 C-0.67 0.67 -0.34 0.34 0 0 Z " fill="#9EADC8" transform="translate(64,83)"/>
<path d="M0 0 C0.99 0.495 0.99 0.495 2 1 C1.67 1.66 1.34 2.32 1 3 C2.65 3 4.3 3 6 3 C6 4.32 6 5.64 6 7 C11.94 8.485 11.94 8.485 18 10 C18 10.99 18 11.98 18 13 C17.01 13 16.02 13 15 13 C13.31201173 14.43750191 13.31201173 14.43750191 12 16 C7.32228063 14.3962105 3.56806473 12.24009247 0.6875 8.125 C-0.20774213 5.35788795 -0.13126019 2.88772424 0 0 Z " fill="#D1D2D4" transform="translate(58,71)"/>
<path d="M0 0 C1.175625 0.01353516 1.175625 0.01353516 2.375 0.02734375 C4.29180055 0.05071937 6.20844191 0.08658347 8.125 0.125 C8.125 0.455 8.125 0.785 8.125 1.125 C4.495 1.455 0.865 1.785 -2.875 2.125 C-2.545 3.115 -2.215 4.105 -1.875 5.125 C-0.225 5.455 1.425 5.785 3.125 6.125 C3.125 6.455 3.125 6.785 3.125 7.125 C0.33380221 7.34614415 -2.4571212 7.55243301 -5.25 7.75 C-6.0440625 7.81445312 -6.838125 7.87890625 -7.65625 7.9453125 C-9.72528224 8.08558587 -11.80125536 8.11258237 -13.875 8.125 C-14.535 7.465 -15.195 6.805 -15.875 6.125 C-15.875 4.125 -15.875 4.125 -14.875 2.125 C-9.87978716 -0.10028173 -5.34727951 -0.11782141 0 0 Z " fill="#074389" transform="translate(79.875,157.875)"/>
<path d="M0 0 C-4.12877506 5.01351257 -7.36292475 5.95504207 -13.5 6.75 C-14.98960317 6.97382638 -16.479187 7.19778145 -17.96875 7.421875 C-19.01446167 7.56532349 -19.01446167 7.56532349 -20.08129883 7.71166992 C-21.70598782 7.95581774 -23.31553524 8.29762444 -24.91796875 8.66015625 C-25.94857422 8.82837891 -25.94857422 8.82837891 -27 9 C-28.8125 7.6875 -28.8125 7.6875 -30 6 C-30 5.34 -30 4.68 -30 4 C-19.605 3.505 -19.605 3.505 -9 3 C-9 2.34 -9 1.68 -9 1 C-2.25 -1.125 -2.25 -1.125 0 0 Z " fill="#1063B5" transform="translate(131,113)"/>
<path d="M0 0 C3.71888239 0.50712033 6.73454239 1.11608215 10 3 C10 3.66 10 4.32 10 5 C10.66 5 11.32 5 12 5 C13 8 13 8 12.375 10.5625 C10.66822278 13.58815053 9.26941682 14.05358987 6 15 C6.875 10.25 6.875 10.25 8 8 C7.67 7.34 7.34 6.68 7 6 C6.01 6.33 5.02 6.66 4 7 C1.49962266 4.82575883 0.56371414 3.26954202 0 0 Z " fill="#4397D9" transform="translate(128,40)"/>
<path d="M0 0 C5.67535617 -0.35470976 9.90479958 0.09876715 15.13671875 2.33203125 C17.7851576 3.28147159 20.22210025 3.20834248 23 3 C26 8.625 26 8.625 26 12 C24.5459375 10.8553125 24.5459375 10.8553125 23.0625 9.6875 C15.68141192 4.46600883 7.86459701 3.48051087 -1 3 C-0.67 2.01 -0.34 1.02 0 0 Z " fill="#5FA4D5" transform="translate(107,60)"/>
<path d="M0 0 C4.10737766 4.39064509 3.47257968 8.83359332 3.37109375 14.55859375 C2.88586728 19.05843078 1.71381629 21.43811612 -1 25 C-1.33 24.34 -1.66 23.68 -2 23 C-1.67 22.34 -1.34 21.68 -1 21 C-2.65 20.67 -4.3 20.34 -6 20 C-5.505 18.515 -5.505 18.515 -5 17 C-4.34 17 -3.68 17 -3 17 C-2.71125 16.195625 -2.4225 15.39125 -2.125 14.5625 C-1 12 -1 12 1 11 C1.08912219 7.16774573 0.87867729 3.73437848 0 0 Z " fill="#B8C8D4" transform="translate(138,79)"/>
<path d="M0 0 C0 0.99 0 1.98 0 3 C0.928125 2.67 1.85625 2.34 2.8125 2 C7.80904873 0.54010305 12.8433358 0.83215198 18 1 C18 1.33 18 1.66 18 2 C15.50159546 2.50938345 13.00176612 3.00763114 10.5 3.5 C9.80390625 3.64308594 9.1078125 3.78617187 8.390625 3.93359375 C3.50912797 4.88277373 -1.02718299 5.13440046 -6 5 C-6 6.98 -6 8.96 -6 11 C-6.99 11.495 -6.99 11.495 -8 12 C-8 8.37 -8 4.74 -8 1 C-5.29120665 -0.35439668 -2.99066732 -0.06501451 0 0 Z " fill="#68ABDA" transform="translate(64,66)"/>
<path d="M0 0 C1.05078125 1.87109375 1.05078125 1.87109375 2 4 C1.1875 6.0625 1.1875 6.0625 0 8 C-0.33 8.99 -0.66 9.98 -1 11 C-1.66 11.66 -2.32 12.32 -3 13 C-3.40047444 15.32275177 -3.7397104 17.65739357 -4 20 C-6.31 19.34 -8.62 18.68 -11 18 C-11 17.01 -11 16.02 -11 15 C-10.29875 14.505 -9.5975 14.01 -8.875 13.5 C-4.60144653 9.78386654 -2.51483324 5.0123824 0 0 Z " fill="#1360B4" transform="translate(172,124)"/>
<path d="M0 0 C-2.81001195 0.67901044 -5.62225661 1.34333172 -8.4375 2 C-9.22060547 2.19078125 -10.00371094 2.3815625 -10.81054688 2.578125 C-16.14506066 3.80747797 -21.52321084 4.75551497 -27 4 C-27.99 3.34 -28.98 2.68 -30 2 C-30 1.34 -30 0.68 -30 0 C-29.01 0.33 -28.02 0.66 -27 1 C-25.26874014 0.93770791 -23.53959642 0.80320396 -21.81640625 0.625 C-20.80642578 0.52703125 -19.79644531 0.4290625 -18.75585938 0.328125 C-16.63081853 0.10977218 -14.5058183 -0.10897638 -12.38085938 -0.328125 C-10.86395508 -0.47507812 -10.86395508 -0.47507812 -9.31640625 -0.625 C-8.39287354 -0.72039062 -7.46934082 -0.81578125 -6.51782227 -0.9140625 C-4.10049516 -0.99656993 -2.29448982 -0.72015608 0 0 Z " fill="#91A7C7" transform="translate(128,112)"/>
<path d="M0 0 C2 1 2 1 2.69848633 2.86669922 C2.90755615 3.67123535 3.11662598 4.47577148 3.33203125 5.3046875 C3.57099121 6.19389893 3.80995117 7.08311035 4.05615234 7.99926758 C4.30574707 8.94825928 4.5553418 9.89725098 4.8125 10.875 C6.92962316 18.64194128 9.22165058 25.86126017 13 33 C12.34 33 11.68 33 11 33 C6.37084762 27.58341945 4.48620413 20.99869993 2.6875 14.25 C2.29208008 12.85201172 2.29208008 12.85201172 1.88867188 11.42578125 C0.77984132 7.41095062 0 4.20303786 0 0 Z " fill="#47A7EE" transform="translate(44,114)"/>
<path d="M0 0 C3.59256246 3.59256246 4.21457776 8.9810358 5.56884766 13.78417969 C6.1198416 15.73176673 6.68608231 17.67445016 7.25390625 19.6171875 C7.60582031 20.85210937 7.95773438 22.08703125 8.3203125 23.359375 C8.64273926 24.48827148 8.96516602 25.61716797 9.29736328 26.78027344 C9.99189969 29.96288155 10.13180423 32.75455066 10 36 C9.34 35.67 8.68 35.34 8 35 C7.26335408 32.78127038 6.63458301 30.52647691 6.0546875 28.26171875 C5.87994904 27.584543 5.70521057 26.90736725 5.525177 26.20967102 C5.15660687 24.77399445 4.79204258 23.33728451 4.43115234 21.8996582 C3.87928802 19.70455608 3.31377168 17.51332489 2.74609375 15.32226562 C0 4.57052799 0 4.57052799 0 0 Z " fill="#157BC4" transform="translate(33,80)"/>
<path d="M0 0 C0.89203125 0.10183594 1.7840625 0.20367187 2.703125 0.30859375 C3.37859375 0.39238281 4.0540625 0.47617188 4.75 0.5625 C4.42 1.2225 4.09 1.8825 3.75 2.5625 C-10.44 2.5625 -24.63 2.5625 -39.25 2.5625 C-39.25 2.2325 -39.25 1.9025 -39.25 1.5625 C-37.9182373 1.52491577 -37.9182373 1.52491577 -36.55957031 1.48657227 C-33.25703963 1.39128203 -29.95467541 1.29205793 -26.65234375 1.19018555 C-25.22465612 1.14694682 -23.79692046 1.10526415 -22.36914062 1.06518555 C-20.31365504 1.00721398 -18.25840872 0.94359825 -16.203125 0.87890625 C-14.34929199 0.82391968 -14.34929199 0.82391968 -12.45800781 0.76782227 C-0.16186545 -0.01916828 -0.16186545 -0.01916828 0 0 Z " fill="#0A3E83" transform="translate(123.25,163.4375)"/>
<path d="M0 0 C0.33 0.99 0.66 1.98 1 3 C-0.07314453 3.16435547 -0.07314453 3.16435547 -1.16796875 3.33203125 C-7.89643816 4.40266739 -14.4802643 5.75962006 -21.08984375 7.4140625 C-23.82173209 7.96410713 -26.22414277 8.11246567 -29 8 C-27 6 -27 6 -24.375 5.875 C-23.59125 5.91625 -22.8075 5.9575 -22 6 C-22 5.34 -22 4.68 -22 4 C-16.01742756 2.68892561 -10.14031748 1.7197398 -4.03125 1.24609375 C-1.93504246 1.10768393 -1.93504246 1.10768393 0 0 Z " fill="#0B59A7" transform="translate(133,146)"/>
<path d="M0 0 C0.99 0.33 1.98 0.66 3 1 C2.01 1.33 1.02 1.66 0 2 C-0.433125 2.99 -0.433125 2.99 -0.875 4 C-2 6 -2 6 -4.625 6.75 C-5.800625 6.87375 -5.800625 6.87375 -7 7 C-7 6.34 -7 5.68 -7 5 C-11.62 5.33 -16.24 5.66 -21 6 C-17.23312136 4.11656068 -15.97041037 3.77942165 -12 4 C-12 3.34 -12 2.68 -12 2 C-10.95199219 1.90912109 -10.95199219 1.90912109 -9.8828125 1.81640625 C-8.97273437 1.73261719 -8.06265625 1.64882812 -7.125 1.5625 C-6.22007812 1.48128906 -5.31515625 1.40007812 -4.3828125 1.31640625 C-1.98889139 1.13010715 -1.98889139 1.13010715 0 0 Z " fill="#0551A2" transform="translate(156,141)"/>
<path d="M0 0 C0.66 0 1.32 0 2 0 C3.00553942 2.66467948 4.00411805 5.33170869 5 8 C5.33644531 8.89074219 5.67289063 9.78148438 6.01953125 10.69921875 C8.02714405 16.09044863 9.72943148 21.38832235 11 27 C10.34 27 9.68 27 9 27 C8.80664062 26.38511719 8.61328125 25.77023438 8.4140625 25.13671875 C8.15367187 24.32847656 7.89328125 23.52023438 7.625 22.6875 C7.36976563 21.88699219 7.11453125 21.08648437 6.8515625 20.26171875 C6.01168189 17.77275472 6.01168189 17.77275472 4 15 C3.24536143 13.01700813 2.54150478 11.01432557 1.875 9 C1.52179688 7.948125 1.16859375 6.89625 0.8046875 5.8125 C0 3 0 3 0 0 Z " fill="#2083CF" transform="translate(158,81)"/>
<path d="M0 0 C0.75 1.625 0.75 1.625 1 4 C-0.32346506 6.0065438 -1.65729179 8.00628175 -3 10 C-3.33709062 12.75258812 -3.33709062 12.75258812 -3 15 C-2.34 15 -1.68 15 -1 15 C-0.46748234 16.91345327 0.05059483 18.8309295 0.5625 20.75 C0.85253906 21.81734375 1.14257812 22.8846875 1.44140625 23.984375 C1.98742254 26.93209929 1.82156762 28.21769433 1 31 C-0.04053969 28.31872526 -1.0573467 25.63202404 -2.0625 22.9375 C-2.35705078 22.18533203 -2.65160156 21.43316406 -2.95507812 20.65820312 C-5.05407148 14.95388 -5.56152757 10.5557676 -3.02734375 4.78515625 C-1.51367188 2.39257812 -1.51367188 2.39257812 0 0 Z " fill="#429EE0" transform="translate(37,57)"/>
<path d="M0 0 C1 3 1 3 -0.625 6.4375 C-2.61948679 9.68803037 -4.71137212 11.976229 -8 14 C-8.99 13.67 -9.98 13.34 -11 13 C-9.98305687 9.94917061 -9.27855788 9.09627325 -7 7 C-6.34 6.34 -5.68 5.68 -5 5 C-3.33333333 3.33333333 -1.66666667 1.66666667 0 0 Z " fill="#3893D7" transform="translate(169,126)"/>
<path d="M0 0 C3.04371484 2.43497187 5.16922635 4.87010395 7.5 8 C7.5 8.66 7.5 9.32 7.5 10 C6.51 9.67 5.52 9.34 4.5 9 C3.3125 6.4375 3.3125 6.4375 2.5 4 C-1.955 4.495 -1.955 4.495 -6.5 5 C-6.83 3.68 -7.16 2.36 -7.5 1 C-4.50815111 -0.62414654 -3.23894952 -1.29557981 0 0 Z " fill="#C3D2DD" transform="translate(130.5,69)"/>
<path d="M0 0 C2.55635242 4.71031604 4.05720413 9.82631212 5.78125 14.8828125 C6.77721081 18.04459652 6.77721081 18.04459652 9 20 C7.35 19.67 5.7 19.34 4 19 C3.01 15.37 2.02 11.74 1 8 C0.01 8 -0.98 8 -2 8 C-2 5.69 -2 3.38 -2 1 C-1.34 0.67 -0.68 0.34 0 0 Z " fill="#3781C5" transform="translate(92,96)"/>
<path d="M0 0 C6.93 0 13.86 0 21 0 C21 0.33 21 0.66 21 1 C19.35 1 17.7 1 16 1 C15.67 1.99 15.34 2.98 15 4 C11.04 4 7.08 4 3 4 C3 3.34 3 2.68 3 2 C2.01 1.67 1.02 1.34 0 1 C0 0.67 0 0.34 0 0 Z " fill="#205BA3" transform="translate(77,93)"/>
<path d="M0 0 C1.5625 1.625 1.5625 1.625 3 4 C2.73202649 6.00980131 2.39013716 8.0103005 2 10 C2.2644354 12.34214207 2.58244638 14.68025766 3 17 C3.99 16.67 4.98 16.34 6 16 C6 19.11227195 5.54372951 21.94152152 5 25 C3.09698988 21.52980508 1.9484595 17.97266467 0.8125 14.1875 C0.26529297 12.41439453 0.26529297 12.41439453 -0.29296875 10.60546875 C-1.0536155 6.72659058 -0.77436487 3.85209533 0 0 Z " fill="#369CE3" transform="translate(39,89)"/>
<path d="M0 0 C0 0.66 0 1.32 0 2 C-8.415 2.495 -8.415 2.495 -17 3 C-15.68 3.66 -14.36 4.32 -13 5 C-19.0546875 5.1953125 -19.0546875 5.1953125 -21 5 C-21.66 4.34 -22.32 3.68 -23 3 C-20.11886078 0.11886078 -17.05829664 0.54044812 -13.1875 0.375 C-12.11918945 0.31699219 -12.11918945 0.31699219 -11.02929688 0.2578125 C-7.35047801 0.06723539 -3.683513 -0.04342059 0 0 Z " fill="#022B65" transform="translate(101,158)"/>
<path d="M0 0 C0.97453125 0.00451172 1.9490625 0.00902344 2.953125 0.01367188 C5.34381434 0.02539094 7.7343744 0.04179781 10.125 0.0625 C10.125 0.3925 10.125 0.7225 10.125 1.0625 C7.14641273 1.40187108 4.16730315 1.73412259 1.1875 2.0625 C0.35669922 2.15789062 -0.47410156 2.25328125 -1.33007812 2.3515625 C-6.88084043 2.95631481 -12.291351 3.15264973 -17.875 3.0625 C-17.545 2.4025 -17.215 1.7425 -16.875 1.0625 C-11.36501859 -0.37370827 -5.65094302 -0.04977118 0 0 Z " fill="#BABBC8" transform="translate(106.875,88.9375)"/>
<path d="M0 0 C0.66 0 1.32 0 2 0 C3.32 2.31 4.64 4.62 6 7 C5.01 7.33 4.02 7.66 3 8 C3 8.66 3 9.32 3 10 C1.68 10.33 0.36 10.66 -1 11 C-1.14285714 3.57142857 -1.14285714 3.57142857 0 0 Z " fill="#479CDC" transform="translate(57,77)"/>
<path d="M0 0 C-0.33 0.33 -0.66 0.66 -1 1 C2.3 1.99 5.6 2.98 9 4 C6 6 6 6 4 6 C3.67 5.34 3.34 4.68 3 4 C1.9275 4.020625 0.855 4.04125 -0.25 4.0625 C-3.14790424 4.0142016 -5.28612141 3.86844115 -8 3 C-8 2.34 -8 1.68 -8 1 C-2.25 -1.125 -2.25 -1.125 0 0 Z " fill="#0A4697" transform="translate(130,153)"/>
<path d="M0 0 C2.05616732 3.35814199 2.17743626 5.67513545 1.8125 9.5625 C1.73644531 10.51253906 1.66039062 11.46257812 1.58203125 12.44140625 C0.94415754 15.24548197 0.21113565 16.22989949 -2 18 C-1.85980308 15.18711295 -1.71312045 12.37483115 -1.5625 9.5625 C-1.52318359 8.76005859 -1.48386719 7.95761719 -1.44335938 7.13085938 C-1.11328125 1.11328125 -1.11328125 1.11328125 0 0 Z " fill="#3884C0" transform="translate(142,81)"/>
<path d="M0 0 C1.29315061 0.95632999 2.58446853 1.91513851 3.875 2.875 C4.59429687 3.40867188 5.31359375 3.94234375 6.0546875 4.4921875 C8 6 8 6 10 8 C8.35 8.66 6.7 9.32 5 10 C5 9.01 5 8.02 5 7 C3.02 6.34 1.04 5.68 -1 5 C-0.67 3.35 -0.34 1.7 0 0 Z " fill="#0862B6" transform="translate(54,146)"/>
<path d="M0 0 C1.50325413 2.9320227 2.85935389 5.89526176 4.125 8.9375 C4.47820313 9.77152344 4.83140625 10.60554688 5.1953125 11.46484375 C6.03905252 14.1230344 6.14867148 16.22975484 6 19 C5.34 19 4.68 19 4 19 C3.32263519 16.96185767 2.65856466 14.91929445 2 12.875 C1.62875 11.73804687 1.2575 10.60109375 0.875 9.4296875 C0.03088051 6.12104059 -0.16509276 3.39471984 0 0 Z " fill="#228ED3" transform="translate(33,74)"/>
<path d="M0 0 C4.53761171 4.17460278 7.23579204 9.88633632 8 16 C7.34 16 6.68 16 6 16 C0.44419134 5.62642369 0.44419134 5.62642369 0 0 Z " fill="#1173C3" transform="translate(47,133)"/>
<path d="M0 0 C2.97 0.495 2.97 0.495 6 1 C5.67 1.99 5.34 2.98 5 4 C-0.28 4 -5.56 4 -11 4 C-11 3.67 -11 3.34 -11 3 C-5.555 2.505 -5.555 2.505 0 2 C0 1.34 0 0.68 0 0 Z " fill="#0F5CB2" transform="translate(139,166)"/>
<path d="M0 0 C0.66 0 1.32 0 2 0 C0.58910383 3.40966574 -0.83139202 5.09883521 -4 7 C-7.234375 7.51171875 -7.234375 7.51171875 -10.75 7.6875 C-11.92046875 7.75324219 -13.0909375 7.81898437 -14.296875 7.88671875 C-15.18890625 7.92410156 -16.0809375 7.96148437 -17 8 C-17 7.67 -17 7.34 -17 7 C-11.555 6.505 -11.555 6.505 -6 6 C-5.67 5.01 -5.34 4.02 -5 3 C-3.68 3 -2.36 3 -1 3 C-0.67 2.01 -0.34 1.02 0 0 Z " fill="#A9BBD2" transform="translate(134,104)"/>
<path d="M0 0 C2.875 0.25 2.875 0.25 6 1 C7.375 3.0625 7.375 3.0625 8 5 C6.02 5.99 6.02 5.99 4 7 C1.49962266 4.82575883 0.56371414 3.26954202 0 0 Z " fill="#74B5E9" transform="translate(128,40)"/>
<path d="M0 0 C1.6290187 0.09050104 3.25459628 0.24727869 4.875 0.4375 C7.62619649 0.75432875 10.22703147 1 13 1 C13.66 1.66 14.32 2.32 15 3 C14.22914062 2.98839844 13.45828125 2.97679687 12.6640625 2.96484375 C11.66117188 2.95582031 10.65828125 2.94679687 9.625 2.9375 C8.12839844 2.92009766 8.12839844 2.92009766 6.6015625 2.90234375 C4.01567547 2.81993398 4.01567547 2.81993398 2 4 C1.01 3.01 0.02 2.02 -1 1 C-0.67 0.67 -0.34 0.34 0 0 Z " fill="#0659A9" transform="translate(62,154)"/>
<path d="M0 0 C0.66 0.66 1.32 1.32 2 2 C1.33333333 4 0.66666667 6 0 8 C-1.98 7.34 -3.96 6.68 -6 6 C-6 5.01 -6 4.02 -6 3 C-4.02 2.01 -2.04 1.02 0 0 Z " fill="#095DB9" transform="translate(167,136)"/>
<path d="M0 0 C6.93 0.99 13.86 1.98 21 3 C21 3.33 21 3.66 21 4 C15.51122187 4.94634106 12.2586961 5.12585587 7 3 C5.712516 2.61088212 4.42067185 2.23591861 3.125 1.875 C2.09375 1.58625 1.0625 1.2975 0 1 C0 0.67 0 0.34 0 0 Z " fill="#1166BC" transform="translate(66,168)"/>
<path d="M0 0 C0.99 0.33 1.98 0.66 3 1 C2.01 1.33 1.02 1.66 0 2 C-1.20882096 4.00016466 -1.20882096 4.00016466 -2 6 C-2.33 5.34 -2.66 4.68 -3 4 C-5.97 4 -8.94 4 -12 4 C-12 3.34 -12 2.68 -12 2 C-10.95199219 1.90912109 -10.95199219 1.90912109 -9.8828125 1.81640625 C-8.97273437 1.73261719 -8.06265625 1.64882812 -7.125 1.5625 C-6.22007812 1.48128906 -5.31515625 1.40007812 -4.3828125 1.31640625 C-1.98889139 1.13010715 -1.98889139 1.13010715 0 0 Z " fill="#0B62B2" transform="translate(156,141)"/>
<path d="M0 0 C1.32 0.33 2.64 0.66 4 1 C4 1.66 4 2.32 4 3 C2.4188708 3.50692692 0.83498617 4.00526443 -0.75 4.5 C-1.63171875 4.7784375 -2.5134375 5.056875 -3.421875 5.34375 C-6 6 -6 6 -10 6 C-9.67 5.34 -9.34 4.68 -9 4 C-6.93359375 3.3671875 -6.93359375 3.3671875 -4.4375 2.875 C-3.61121094 2.70742188 -2.78492188 2.53984375 -1.93359375 2.3671875 C-0.97646484 2.18542969 -0.97646484 2.18542969 0 2 C0 1.34 0 0.68 0 0 Z " fill="#4984C8" transform="translate(52,44)"/>
<path d="M0 0 C0.33 0.99 0.66 1.98 1 3 C-0.77554521 6.48986471 -2.24152313 9.24152313 -5 12 C-5.99 11.67 -6.98 11.34 -8 11 C-7.38511719 10.31164062 -7.38511719 10.31164062 -6.7578125 9.609375 C-6.21898437 8.99578125 -5.68015625 8.3821875 -5.125 7.75 C-4.59132812 7.14671875 -4.05765625 6.5434375 -3.5078125 5.921875 C-2.0202513 4.02581254 -0.99677564 2.18709995 0 0 Z " fill="#71C4F3" transform="translate(169,126)"/>
<path d="M0 0 C-0.30618405 3.67420866 -0.75771784 4.78135513 -3.5625 7.3125 C-4.366875 7.869375 -5.17125 8.42625 -6 9 C-5.6875 5.625 -5.6875 5.625 -5 2 C-2 0 -2 0 0 0 Z " fill="#1F85CE" transform="translate(166,127)"/>
<path d="M0 0 C2.02218559 3.03327838 3.04968906 5.74827731 4.21875 9.16015625 C4.9486829 11.19834017 4.9486829 11.19834017 7 13 C5.35 12.67 3.7 12.34 2 12 C0.70756464 7.8803623 -0.26252625 4.33168317 0 0 Z " fill="#4081BC" transform="translate(94,103)"/>
<path d="M0 0 C0.99 0.495 0.99 0.495 2 1 C2.67784992 3.33010909 3.34416793 5.66359824 4 8 C4.66 8.66 5.32 9.32 6 10 C5.67 10.99 5.34 11.98 5 13 C1.10364046 8.22381734 -0.13469529 6.19598355 0 0 Z " fill="#AFC8E2" transform="translate(58,71)"/>
<path d="M0 0 C2.35302007 2.35302007 2.39392208 3.27435295 2.75 6.5 C2.84796875 7.2940625 2.9459375 8.088125 3.046875 8.90625 C3 11 3 11 1 13 C0.67 8.71 0.34 4.42 0 0 Z " fill="#186CBC" transform="translate(171,109)"/>
<path d="M0 0 C1.5625 1.75 1.5625 1.75 3 4 C2.6875 6.25 2.6875 6.25 2 8 C1.01 7.67 0.02 7.34 -1 7 C-0.67 4.69 -0.34 2.38 0 0 Z " fill="#3495DB" transform="translate(39,89)"/>
<path d="M0 0 C0.66 0.33 1.32 0.66 2 1 C2.4140625 3.06640625 2.4140625 3.06640625 2.625 5.5625 C2.69976562 6.38878906 2.77453125 7.21507813 2.8515625 8.06640625 C2.92503906 9.02353516 2.92503906 9.02353516 3 10 C0 8 0 8 -0.75 5.5625 C-1 3 -1 3 0 0 Z " fill="#3C90CF" transform="translate(134,65)"/>
<path d="M0 0 C2.17854707 3.2678206 3.49760034 6.38058265 5 10 C4.34 10 3.68 10 3 10 C-0.22265625 4.82421875 -0.22265625 4.82421875 -1 3 C-0.67 2.01 -0.34 1.02 0 0 Z " fill="#44A3E9" transform="translate(52,137)"/>
<path d="M0 0 C3.03869411 1.51934706 3.64410306 3.98004772 5 7 C5 7.66 5 8.32 5 9 C4.01 9 3.02 9 2 9 C1.34 6.03 0.68 3.06 0 0 Z " fill="#ADC5E0" transform="translate(95,103)"/>
<path d="M0 0 C0.75 1.625 0.75 1.625 1 4 C-0.9375 7.25 -0.9375 7.25 -3 10 C-4 7 -4 7 -3.22265625 5.17578125 C-2.1484375 3.45052083 -1.07421875 1.72526042 0 0 Z " fill="#71B7F1" transform="translate(37,57)"/>
<path d="M0 0 C0.66 0 1.32 0 2 0 C1.34 2.31 0.68 4.62 0 7 C-0.66 7 -1.32 7 -2 7 C-1.125 2.25 -1.125 2.25 0 0 Z " fill="#1A7AC9" transform="translate(142,96)"/>
<path d="M0 0 C4 4.625 4 4.625 4 8 C3.34 8 2.68 8 2 8 C-0.1519437 4.77208445 -0.20086443 3.71599191 0 0 Z " fill="#518FC2" transform="translate(58,77)"/>
<path d="M0 0 C1.98 0 3.96 0 6 0 C5.01 1.485 5.01 1.485 4 3 C1.375 3.1875 1.375 3.1875 -1 3 C-0.67 2.01 -0.34 1.02 0 0 Z " fill="#CBDBE7" transform="translate(60,71)"/>
</svg>
