<svg width="201" height="34" viewBox="0 0 201 34" fill="none" xmlns="http://www.w3.org/2000/svg">
<path d="M0 33.9941V0H7.95363V14.0365H23.6197V0H31.5733V33.9941H23.6197V19.8605H7.95363V33.9941H0Z" fill="#9CE56D"/>
<path d="M68.7148 33.9941V0H87.0341C89.6873 0 91.9963 0.373562 93.9641 1.11774C95.9319 1.86193 97.4585 2.91496 98.5439 4.2739C99.6293 5.63284 100.171 7.23592 100.171 9.0802V9.6626C100.171 11.701 99.5675 13.3541 98.3615 14.616C97.1555 15.8778 95.6701 16.8015 93.9023 17.3839V18.2575C95.5083 18.3222 96.7555 18.7663 97.6379 19.5929C98.5204 20.4194 98.9645 21.5107 98.9645 22.8726V33.9941H91.0109V23.7962C91.0109 23.0196 90.7609 22.3872 90.2579 21.9019C89.7549 21.4166 88.9225 21.1724 87.7577 21.1724H76.6685V33.9941H68.7148ZM76.6685 15.3454H86.1899C88.0783 15.3454 89.5549 14.9336 90.6197 14.1071C91.6845 13.2806 92.2169 12.1893 92.2169 10.8303V10.345C92.2169 8.98607 91.6933 7.89186 90.6491 7.06532C89.6049 6.23878 88.1165 5.82697 86.1899 5.82697H76.6685V15.3454Z" fill="#9CE56D"/>
<path d="M104.25 33.9941V0H112.204V33.9941H104.25Z" fill="#9CE56D"/>
<path d="M116.27 33.9941V0H131.394L139.772 29.6232H140.857V0H148.69V33.9941H133.565L125.188 4.37097H124.103V33.9941H116.27Z" fill="#9CE56D"/>
<path d="M168.306 33.9941C165.415 33.9941 162.791 33.4882 160.441 32.4763C158.091 31.4645 156.223 29.9849 154.837 28.0407C153.452 26.0964 152.758 23.7226 152.758 20.9195V13.0747C152.758 8.87136 154.284 5.64166 157.338 3.38559C160.391 1.12951 164.529 0 169.75 0C174.971 0 178.939 1.06774 181.772 3.20028C184.605 5.33281 186.019 8.2213 186.019 11.8628V12.0481H178.186V11.6745C178.186 10.5244 177.875 9.48023 177.254 8.54486C176.63 7.61242 175.695 6.87118 174.451 6.32702C173.207 5.78285 171.639 5.5093 169.75 5.5093C166.938 5.5093 164.729 6.17995 163.12 7.5183C161.514 8.85665 160.711 10.6774 160.711 12.9835V21.0165C160.711 23.2903 161.514 25.1198 163.12 26.5023C164.726 27.8877 166.977 28.5789 169.871 28.5789C172.765 28.5789 174.874 27.9877 176.198 26.8053C177.525 25.6228 178.186 24.1286 178.186 22.3225V21.8548H168.183V16.625H186.019V33.9971H178.669V30.2144H177.583C177.301 30.7438 176.851 31.3057 176.227 31.8939C175.604 32.4852 174.671 32.9852 173.424 33.3882C172.18 33.7912 170.471 33.9941 168.303 33.9941H168.306Z" fill="#9CE56D"/>
<path d="M39.1761 34V28.626H55.4746C56.6011 28.626 57.1659 28.1377 57.1659 27.1612V21.0548H56.0805C55.7569 21.6078 55.2539 22.1607 54.5715 22.7167C53.8862 23.2697 52.9626 23.7256 51.7948 24.0844C50.6271 24.4433 49.1387 24.6227 47.3268 24.6227C44.9913 24.6227 42.9499 24.1903 41.1998 23.3285C39.4496 22.4667 38.0907 21.2695 37.1259 19.7399C36.1611 18.2104 35.6758 16.4514 35.6758 14.463V0H43.2823V13.9718C43.2823 15.7955 43.8353 17.1632 44.9442 18.0751C46.0502 18.9869 47.6298 19.4429 49.6829 19.4429C52.0154 19.4429 53.8274 18.8163 55.1157 17.5633C56.404 16.3102 57.0482 14.5601 57.0482 12.3128V0H64.6548V28.5289C64.6548 30.1908 64.0518 31.5174 62.8428 32.5087C61.6369 33.5029 60.0249 34 58.013 34H39.179H39.1761Z" fill="#9CE56D"/>
<path fill-rule="evenodd" clip-rule="evenodd" d="M194.683 0.00497673C194.315 0.019922 193.807 0.0991197 193.455 0.196379C192.479 0.466727 191.644 0.952761 190.933 1.66496C190.674 1.92518 190.521 2.10386 190.326 2.37615C189.364 3.72122 189.037 5.42519 189.436 7.02933C189.825 8.60058 190.863 9.92344 192.305 10.6885C192.959 11.0354 193.689 11.248 194.474 11.3202C194.665 11.3379 195.195 11.3379 195.393 11.3204C196.6 11.2135 197.674 10.7684 198.597 9.9931C198.77 9.84759 199.098 9.52143 199.245 9.34829C200.007 8.45286 200.469 7.36226 200.578 6.19782C200.624 5.70143 200.607 5.2257 200.523 4.72202C200.358 3.73615 199.932 2.81483 199.274 2.02372C199.126 1.84646 198.756 1.47546 198.585 1.33409C197.882 0.751535 197.134 0.372088 196.274 0.162029C195.752 0.0345039 195.228 -0.0171713 194.683 0.00497673ZM194.573 0.714662C193.95 0.761138 193.354 0.921329 192.79 1.19367C192.267 1.44643 191.839 1.7503 191.429 2.16082C191.03 2.55998 190.728 2.98145 190.481 3.483C189.798 4.87034 189.802 6.50288 190.493 7.88261C190.594 8.08388 190.672 8.21591 190.813 8.42804C191.464 9.40507 192.437 10.116 193.571 10.4434C194.756 10.7857 196.044 10.6671 197.147 10.1139C198.038 9.66746 198.765 8.97681 199.261 8.1066C199.34 7.96777 199.492 7.6506 199.553 7.49715C200.12 6.05984 199.988 4.43661 199.195 3.11956C198.818 2.49242 198.293 1.94105 197.693 1.54165C196.959 1.05304 196.156 0.778452 195.272 0.713516C195.094 0.700432 194.756 0.700983 194.573 0.714662ZM192.907 5.66589L192.91 8.64831L193.428 8.65117L193.945 8.65404V7.50843V6.36282L194.524 6.36567L195.102 6.36853L195.177 6.5117C195.313 6.77175 195.776 7.65995 196.037 8.16106L196.294 8.65402L196.851 8.65116C197.367 8.64852 197.408 8.64694 197.411 8.62936C197.413 8.61893 197.342 8.4752 197.253 8.30997C197.164 8.14473 196.991 7.82368 196.868 7.59653C196.143 6.25324 196.07 6.11532 196.083 6.11099C196.125 6.09774 196.351 5.97444 196.422 5.92599C196.643 5.77624 196.829 5.58217 196.948 5.37711C197.086 5.139 197.148 4.89452 197.157 4.5458C197.171 3.9843 197.025 3.56389 196.702 3.24107C196.468 3.00688 196.116 2.83017 195.727 2.75143C195.425 2.69021 195.465 2.69183 194.138 2.6875L192.905 2.68348L192.907 5.66589ZM193.945 4.51827V5.51498L194.559 5.51476C194.906 5.51464 195.206 5.50979 195.25 5.50359C195.705 5.43888 196.015 5.17413 196.097 4.78018C196.149 4.52794 196.117 4.22845 196.015 4.0219C195.873 3.73663 195.604 3.57353 195.207 3.53364C195.136 3.52656 194.85 3.52155 194.516 3.52155H193.945V4.51827Z" fill="#9CE56D"/>
</svg>
