<?xml version="1.0" encoding="UTF-8"?>
<svg version="1.1" xmlns="http://www.w3.org/2000/svg" width="460" height="460">
<path d="M0 0 C151.8 0 303.6 0 460 0 C460 151.8 460 303.6 460 460 C308.2 460 156.4 460 0 460 C0 308.2 0 156.4 0 0 Z " fill="#4E8D73" transform="translate(0,0)"/>
<path d="M0 0 C1.0209375 -0.00193359 2.041875 -0.00386719 3.09375 -0.00585938 C14.12358102 0.21799328 24.28874676 3.06732907 34.6875 6.5625 C34.6875 7.2225 34.6875 7.8825 34.6875 8.5625 C35.55632812 8.82675781 36.42515625 9.09101562 37.3203125 9.36328125 C49.59560635 13.73510864 63.34985112 23.51001538 69.125 35.5625 C69.310625 36.2225 69.49625 36.8825 69.6875 37.5625 C70.3475 37.5625 71.0075 37.5625 71.6875 37.5625 C79.34282267 51.28472104 84.37328497 65.71708501 84.6875 81.5625 C84.72617187 82.45195312 84.76484375 83.34140625 84.8046875 84.2578125 C85.521519 112.85142454 78.7741741 148.14642832 65.59643555 173.67626953 C64.4898245 175.69607438 64.4898245 175.69607438 64.375 178.75 C63.6061943 183.01337707 62.07743445 185.79350844 59.84375 189.44921875 C58.59041447 191.49966784 58.59041447 191.49966784 58.21875 193.76953125 C58.0434375 194.36121094 57.868125 194.95289063 57.6875 195.5625 C56.6975 195.8925 55.7075 196.2225 54.6875 196.5625 C53.2269791 199.08896559 51.93396133 201.55868494 50.6875 204.1875 C50.34460938 204.88746094 50.00171875 205.58742188 49.6484375 206.30859375 C47.52693829 210.67305204 45.56628973 215.08863197 43.6875 219.5625 C43.0275 219.5625 42.3675 219.5625 41.6875 219.5625 C41.460625 220.366875 41.23375 221.17125 41 222 C39.3470579 226.48655714 37.06591453 230.42730202 34.6875 234.5625 C33.74739829 236.24855198 32.80979303 237.93599896 31.875 239.625 C31.14583333 240.9375 30.41666667 242.25 29.6875 243.5625 C29.0275 243.5625 28.3675 243.5625 27.6875 243.5625 C27.6875 244.8825 27.6875 246.2025 27.6875 247.5625 C27.0275 247.5625 26.3675 247.5625 25.6875 247.5625 C25.39875 248.531875 25.11 249.50125 24.8125 250.5 C23.6875 253.5625 23.6875 253.5625 21.6875 254.5625 C20.88415764 256.74003143 20.88415764 256.74003143 20.25 259.3125 C19.23609485 263.1827208 17.86086263 266.19651219 15.6875 269.5625 C16.60789062 269.55089844 17.52828125 269.53929687 18.4765625 269.52734375 C41.10149758 269.36606621 41.10149758 269.36606621 48.6875 271.5625 C48.6875 272.2225 48.6875 272.8825 48.6875 273.5625 C50.6365625 273.5315625 50.6365625 273.5315625 52.625 273.5 C53.97915633 273.47850546 55.33506083 273.49101801 56.6875 273.5625 C57.0175 273.8925 57.3475 274.2225 57.6875 274.5625 C60.01567964 274.93010731 62.3493385 275.26491581 64.6875 275.5625 C64.6875 276.2225 64.6875 276.8825 64.6875 277.5625 C66.0075 277.8925 67.3275 278.2225 68.6875 278.5625 C69.0175 280.8725 69.3475 283.1825 69.6875 285.5625 C66.7175 286.5525 63.7475 287.5425 60.6875 288.5625 C60.6875 289.2225 60.6875 289.8825 60.6875 290.5625 C59.718125 290.541875 58.74875 290.52125 57.75 290.5 C54.81284105 290.20631501 54.81284105 290.20631501 53.6875 291.5625 C52.718125 291.541875 51.74875 291.52125 50.75 291.5 C47.57718786 291.21112426 47.57718786 291.21112426 45.6875 293.5625 C40.02841517 294.82007441 34.44915165 294.57194923 28.67578125 294.40234375 C25.78661254 294.33386389 25.78661254 294.33386389 23.94067383 295.5559082 C20.78824187 296.96423814 18.09273352 296.82193896 14.6484375 296.828125 C13.62709213 296.83099518 13.62709213 296.83099518 12.58511353 296.83392334 C11.14446646 296.83528188 9.70380701 296.83160855 8.26318359 296.82324219 C6.0905293 296.81263682 3.91872074 296.82309633 1.74609375 296.8359375 C-5.0736451 296.84102993 -11.57722205 296.68444654 -18.21240234 294.89355469 C-20.79611328 294.48626429 -22.77337663 294.99929569 -25.3125 295.5625 C-28.609375 295.29296875 -28.609375 295.29296875 -32.0625 294.75 C-33.21234375 294.57855469 -34.3621875 294.40710938 -35.546875 294.23046875 C-36.45953125 294.01003906 -37.3721875 293.78960937 -38.3125 293.5625 C-38.6425 292.9025 -38.9725 292.2425 -39.3125 291.5625 C-41.0140625 291.5934375 -41.0140625 291.5934375 -42.75 291.625 C-46.3125 291.5625 -46.3125 291.5625 -47.3125 290.5625 C-50.31308634 290.10401404 -53.31938911 289.72608611 -56.33203125 289.35546875 C-59.78328305 288.43724579 -61.13987442 287.36034157 -63.3125 284.5625 C-63.5625 281.8125 -63.5625 281.8125 -63.3125 279.5625 C-62.6525 279.5625 -61.9925 279.5625 -61.3125 279.5625 C-61.3125 278.9025 -61.3125 278.2425 -61.3125 277.5625 C-59.91971983 276.91010842 -58.52310788 276.26589448 -57.125 275.625 C-56.34769531 275.26535156 -55.57039063 274.90570313 -54.76953125 274.53515625 C-44.87443354 270.618019 -32.79460724 271.3699715 -22.3125 271.5625 C-22.3125 270.9025 -22.3125 270.2425 -22.3125 269.5625 C-18.6825 269.5625 -15.0525 269.5625 -11.3125 269.5625 C-11.91433749 267.54204558 -12.58556096 265.54138961 -13.3125 263.5625 C-13.9725 263.2325 -14.6325 262.9025 -15.3125 262.5625 C-15.3125 261.5725 -15.3125 260.5825 -15.3125 259.5625 C-15.9725 259.5625 -16.6325 259.5625 -17.3125 259.5625 C-17.55484375 258.92183594 -17.7971875 258.28117187 -18.046875 257.62109375 C-19.79962457 253.09765158 -21.59894443 248.79955468 -24.09765625 244.625 C-25.8188657 241.70281804 -27.44211792 238.72875702 -29.0625 235.75 C-29.67609375 234.62980469 -30.2896875 233.50960937 -30.921875 232.35546875 C-32.3125 229.5625 -32.3125 229.5625 -32.3125 227.5625 C-33.3025 227.5625 -34.2925 227.5625 -35.3125 227.5625 C-36.15069158 225.94000059 -36.9829116 224.31441503 -37.8125 222.6875 C-38.2765625 221.78257812 -38.740625 220.87765625 -39.21875 219.9453125 C-40.3125 217.5625 -40.3125 217.5625 -40.3125 215.5625 C-40.9725 215.5625 -41.6325 215.5625 -42.3125 215.5625 C-42.48265625 214.91023437 -42.6528125 214.25796875 -42.828125 213.5859375 C-43.07046875 212.71195313 -43.3128125 211.83796875 -43.5625 210.9375 C-43.79453125 210.07898438 -44.0265625 209.22046875 -44.265625 208.3359375 C-45.22837605 205.45609573 -45.22837605 205.45609573 -47.171875 202.8359375 C-49.87845719 198.69703991 -51.54393605 194.41352965 -53.3125 189.8125 C-53.6425 188.96945312 -53.9725 188.12640625 -54.3125 187.2578125 C-54.98075028 185.55064186 -55.64642976 183.84246275 -56.30957031 182.13330078 C-57.31167242 179.56462134 -58.33231909 177.00410683 -59.359375 174.4453125 C-61.1257753 170.03795362 -62.86786054 165.6229594 -64.5625 161.1875 C-64.830625 160.50300781 -65.09875 159.81851563 -65.375 159.11328125 C-66.68445364 155.67262501 -67.3125 153.29761255 -67.3125 149.5625 C-67.9725 149.5625 -68.6325 149.5625 -69.3125 149.5625 C-72.2851067 139.92407614 -74.41251163 130.41162309 -76 120.4375 C-76.21205078 119.17035156 -76.42410156 117.90320313 -76.64257812 116.59765625 C-78.55028522 104.91069353 -79.63142591 93.40624843 -79.3125 81.5625 C-79.28414062 80.37527344 -79.25578125 79.18804687 -79.2265625 77.96484375 C-78.18045395 53.87943986 -67.18646133 35.06582144 -49.87890625 18.97802734 C-36.58406808 6.96377053 -17.83477855 -0.03571718 0 0 Z " fill="#2A2B27" transform="translate(227.3125,82.4375)"/>
<path d="M0 0 C0.86367188 0.48339844 1.72734375 0.96679688 2.6171875 1.46484375 C17.68431866 10.71423921 28.22381018 26.13523672 33 43 C34.80242288 51.33387512 35.32243295 59.42820303 35.25 67.9375 C35.24395752 69.0826709 35.23791504 70.2278418 35.23168945 71.40771484 C35.14043855 79.16459451 34.59043128 86.40015434 33 94 C32.81695312 95.14855469 32.63390625 96.29710937 32.4453125 97.48046875 C29.34183181 116.2737685 23.35173782 134.35060635 15.91259766 151.84423828 C15.09216436 153.78228697 14.30010401 155.73228849 13.51171875 157.68359375 C9.35525185 167.81132297 4.19514118 177.37558053 -1 187 C-1.51304687 187.96292969 -2.02609375 188.92585937 -2.5546875 189.91796875 C-4.97820964 194.4280144 -7.49409925 198.88513181 -10.03125 203.33203125 C-10.5792627 204.29254395 -11.12727539 205.25305664 -11.69189453 206.24267578 C-14.12373965 210.49752287 -16.56025321 214.74967935 -19 219 C-20.18230862 215.45307415 -19.73585223 214.31666243 -18.70703125 210.78515625 C-18.25855835 209.19127075 -18.25855835 209.19127075 -17.80102539 207.56518555 C-17.47481201 206.40929932 -17.14859863 205.25341309 -16.8125 204.0625 C-6.58893883 165.5781494 -4.79499954 123.92108154 -14 85 C-14.2676416 83.86208008 -14.5352832 82.72416016 -14.81103516 81.55175781 C-18.80660213 65.01240443 -23.29370596 47.9295735 -31.14086914 32.75 C-32.12831822 30.73862318 -32.77626829 28.71880188 -33.375 26.5625 C-33.91125 25.386875 -34.4475 24.21125 -35 23 C-38.07797583 21.85968434 -38.07797583 21.85968434 -41 22 C-41.226875 22.763125 -41.45375 23.52625 -41.6875 24.3125 C-42.76126951 27.329281 -43.9508896 30.10148813 -45.30859375 32.9921875 C-66.84142024 80.12951635 -74.20501742 138.13154722 -63 189 C-62.82919922 189.77859375 -62.65839844 190.5571875 -62.48242188 191.359375 C-61.44633163 195.94255066 -60.24046063 200.4675477 -59 205 C-58.23599339 207.99654497 -57.49299054 210.99818554 -56.75 214 C-56.41182402 215.35425804 -56.07331862 216.70843389 -55.734375 218.0625 C-55.49203125 219.031875 -55.2496875 220.00125 -55 221 C-61.77945213 214.76050423 -65.69689152 205.02579767 -70 197 C-70.66372893 195.78887963 -71.32781208 194.57795335 -71.9921875 193.3671875 C-78.15696088 182.03484241 -83.55646336 170.39118947 -88.82080078 158.6171875 C-89.76363463 156.52460389 -90.72728415 154.44661545 -91.71484375 152.375 C-104.10450969 125.46780306 -111.22167404 94.82546689 -111.3125 65.25 C-111.31789795 64.17991699 -111.3232959 63.10983398 -111.32885742 62.00732422 C-111.14134807 41.19215608 -103.57661418 23.99814082 -89.4375 9 C-81.15629567 0.90786426 -71.08101819 -5.52841519 -60 -9 C-59.1028125 -9.29648438 -58.205625 -9.59296875 -57.28125 -9.8984375 C-36.7415317 -15.91679582 -17.95967833 -10.16262561 0 0 Z " fill="#AAC87C" transform="translate(268,103)"/>
<path d="M0 0 C5.41930554 0.54754641 9.79859684 1.88866849 14.75 4.125 C15.4502832 4.43993408 16.15056641 4.75486816 16.87207031 5.0793457 C37.02327152 14.3526899 49.9481669 28.71258394 57.9921875 49.44140625 C60.66432442 58.87674242 61.33315256 68.16888234 61.25 77.9375 C61.24395752 79.0826709 61.23791504 80.2278418 61.23168945 81.40771484 C61.14043855 89.16459451 60.59043128 96.40015434 59 104 C58.81695312 105.14855469 58.63390625 106.29710937 58.4453125 107.48046875 C55.34183181 126.2737685 49.35173782 144.35060635 41.91259766 161.84423828 C41.09216436 163.78228697 40.30010401 165.73228849 39.51171875 167.68359375 C35.35525185 177.81132297 30.19514118 187.37558053 25 197 C24.48695313 197.96292969 23.97390625 198.92585937 23.4453125 199.91796875 C21.02179036 204.4280144 18.50590075 208.88513181 15.96875 213.33203125 C15.4207373 214.29254395 14.87272461 215.25305664 14.30810547 216.24267578 C11.87626035 220.49752287 9.43974679 224.74967935 7 229 C5.78157589 225.34472766 6.35094521 223.90354092 7.36328125 220.22265625 C7.82831055 218.49112305 7.82831055 218.49112305 8.30273438 216.72460938 C8.63595703 215.51611328 8.96917969 214.30761719 9.3125 213.0625 C11.68238225 204.41409204 13.71672133 195.88118395 15 187 C15.66 187.33 16.32 187.66 17 188 C19.35450384 184.46824425 20.30837959 180.91116151 21.4375 176.875 C21.88150102 175.32123922 22.32679929 173.76784851 22.7734375 172.21484375 C22.98581055 171.4760498 23.19818359 170.73725586 23.41699219 169.97607422 C24.06736829 167.77165872 24.79407965 165.60343207 25.5625 163.4375 C37.04646923 129.18023585 38.1491222 87.8215485 25.90625 53.55078125 C25.14825414 51.41728429 24.5095508 49.31309433 23.9375 47.125 C22.74926125 43.16420416 20.92085431 39.73504596 18.98828125 36.09375 C16.75734201 31.78115371 15.17842076 27.71368302 14 23 C13.34 23 12.68 23 12 23 C10.74335022 20.09399739 10 18.20395416 10 15 C9.34 15 8.68 15 8 15 C7.4225 13.948125 6.845 12.89625 6.25 11.8125 C4.87614824 9.38372635 3.53546135 7.43223053 1.75 5.25 C0 3 0 3 0 0 Z " fill="#8FAB5D" transform="translate(242,93)"/>
<path d="M0 0 C0.66 0 1.32 0 2 0 C3.27696114 3.28932115 4.54539916 6.58186927 5.8125 9.875 C6.34713867 11.25171875 6.34713867 11.25171875 6.89257812 12.65625 C8.60463852 17.11703122 10.26724996 21.59405543 11.76171875 26.1328125 C12.00237061 26.8561377 12.24302246 27.57946289 12.4909668 28.32470703 C13.77583699 35.07751641 12.92620148 41.98463318 12.08203125 48.75 C11.98476746 49.55747681 11.88750366 50.36495361 11.78729248 51.19689941 C11.47012412 53.79896434 11.1427552 56.39956533 10.8125 59 C10.70018036 59.89227295 10.58786072 60.7845459 10.47213745 61.70385742 C8.62240747 76.28990733 6.31106781 90.66675535 3 105 C2.77731445 105.99837891 2.55462891 106.99675781 2.32519531 108.02539062 C-0.93476074 122.54575904 -5.35354667 136.23761225 -11 150 C-11.66739488 151.6663752 -12.33450432 153.33286542 -13 155 C-13.66 155 -14.32 155 -15 155 C-15.69536331 151.14082942 -16.38906662 147.28136434 -17.08129883 143.42163086 C-17.43159612 141.47038608 -17.78316996 139.51937062 -18.13476562 137.56835938 C-18.35712891 136.32763672 -18.57949219 135.08691406 -18.80859375 133.80859375 C-19.11494751 132.10401001 -19.11494751 132.10401001 -19.42749023 130.36499023 C-20.46053532 124.29315213 -21.16309973 118.41169634 -21.203125 112.25 C-21.21022995 111.52346222 -21.2173349 110.79692444 -21.22465515 110.04837036 C-21.50965767 72.2313285 -15.51938633 34.82282057 0 0 Z " fill="#C3C2C3" transform="translate(229,141)"/>
<path d="M0 0 C4.36524258 3.83612227 7.11797131 8.21008503 10.15625 13.140625 C12.42600641 16.66067095 14.96389648 19.88869884 17.6171875 23.125 C19 25 19 25 20 28 C20.66 28.33 21.32 28.66 22 29 C22 29.99 22 30.98 22 32 C25.44760689 28.95799392 27.66765569 26.01265353 29.9375 22 C32.45921388 17.61156285 34.89789014 14.93007847 39 12 C37.125 16.75 37.125 16.75 36 19 C36.92039062 18.98839844 37.84078125 18.97679687 38.7890625 18.96484375 C61.41399758 18.80356621 61.41399758 18.80356621 69 21 C69 21.66 69 22.32 69 23 C70.299375 22.979375 71.59875 22.95875 72.9375 22.9375 C74.29165633 22.91600546 75.64756083 22.92851801 77 23 C77.33 23.33 77.66 23.66 78 24 C80.32817964 24.36760731 82.6618385 24.70241581 85 25 C85 25.66 85 26.32 85 27 C86.32 27.33 87.64 27.66 89 28 C89.33 30.31 89.66 32.62 90 35 C87.03 35.99 84.06 36.98 81 38 C81 38.66 81 39.32 81 40 C80.030625 39.979375 79.06125 39.95875 78.0625 39.9375 C75.12534105 39.64381501 75.12534105 39.64381501 74 41 C73.030625 40.979375 72.06125 40.95875 71.0625 40.9375 C67.88968786 40.64862426 67.88968786 40.64862426 66 43 C60.34091517 44.25757441 54.76165165 44.00944923 48.98828125 43.83984375 C46.09911254 43.77136389 46.09911254 43.77136389 44.25317383 44.9934082 C41.10074187 46.40173814 38.40523352 46.25943896 34.9609375 46.265625 C34.28004059 46.26753845 33.59914368 46.2694519 32.89761353 46.27142334 C31.45696646 46.27278188 30.01630701 46.26910855 28.57568359 46.26074219 C26.4030293 46.25013682 24.23122074 46.26059633 22.05859375 46.2734375 C15.2388549 46.27852993 8.73527795 46.12194654 2.10009766 44.33105469 C-0.48361328 43.92376429 -2.46087663 44.43679569 -5 45 C-8.296875 44.73046875 -8.296875 44.73046875 -11.75 44.1875 C-12.89984375 44.01605469 -14.0496875 43.84460938 -15.234375 43.66796875 C-16.60335937 43.33732422 -16.60335937 43.33732422 -18 43 C-18.33 42.34 -18.66 41.68 -19 41 C-20.7015625 41.0309375 -20.7015625 41.0309375 -22.4375 41.0625 C-26 41 -26 41 -27 40 C-30.00058634 39.54151404 -33.00688911 39.16358611 -36.01953125 38.79296875 C-39.47078305 37.87474579 -40.82737442 36.79784157 -43 34 C-43.25 31.25 -43.25 31.25 -43 29 C-42.34 29 -41.68 29 -41 29 C-41 28.34 -41 27.68 -41 27 C-39.60721983 26.34760842 -38.21060788 25.70339448 -36.8125 25.0625 C-36.03519531 24.70285156 -35.25789062 24.34320313 -34.45703125 23.97265625 C-24.56193354 20.055519 -12.48210724 20.8074715 -2 21 C-2 20.34 -2 19.68 -2 19 C1.63 19 5.26 19 9 19 C8.39816251 16.97954558 7.72693904 14.97888961 7 13 C6.34 12.67 5.68 12.34 5 12 C5 11.01 5 10.02 5 9 C4.34 9 3.68 9 3 9 C0 3.375 0 3.375 0 0 Z " fill="#3C5F50" transform="translate(207,333)"/>
<path d="M0 0 C0.66 0 1.32 0 2 0 C10.72361356 45.42094791 8.89465747 92.50409363 -8 136 C-8.53688317 137.42643455 -9.07201048 138.85353108 -9.60546875 140.28125 C-11.0703125 144.1875 -12.53515625 148.09375 -14 152 C-14.66 152 -15.32 152 -16 152 C-20.39453125 140.28125 -20.39453125 140.28125 -21.19677734 138.13647461 C-21.72877772 136.72141829 -22.26550488 135.30812931 -22.80712891 133.89672852 C-24.31468152 129.95010061 -25.67091286 126.02812115 -26.75 121.9375 C-27.01296875 120.97714844 -27.2759375 120.01679688 -27.546875 119.02734375 C-28.41725802 113.21228477 -27.10673197 108.69004371 -24.4375 103.5625 C-9.22770723 71.82351075 -3.69012275 34.72115501 0 0 Z " fill="#7C7B7C" transform="translate(245,192)"/>
<path d="M0 0 C0.33 0 0.66 0 1 0 C1 4.29 1 8.58 1 13 C1.99 13 2.98 13 4 13 C3.24828122 26.92980928 1.16884193 40.45334917 -1.5 54.125 C-1.6553421 54.92997925 -1.8106842 55.7349585 -1.97073364 56.56433105 C-2.42036652 58.8805054 -2.87977279 61.19447296 -3.34375 63.5078125 C-3.48022446 64.20490326 -3.61669891 64.90199402 -3.75730896 65.62020874 C-4.45502533 69.01592479 -5.24181607 71.99595697 -7 75 C-7.99 74.67 -8.98 74.34 -10 74 C-10.66 75.65 -11.32 77.3 -12 79 C-13.28436126 75.14691623 -12.46399517 73.50326998 -11.3125 69.625 C-4.9726144 46.89217809 -2.76859161 23.37067303 0 0 Z " fill="#2E2E2E" transform="translate(241,181)"/>
<path d="M0 0 C14.52 0 29.04 0 44 0 C41 3 41 3 37.75708008 3.37231445 C36.44118896 3.3693335 35.12529785 3.36635254 33.76953125 3.36328125 C32.70565437 3.36402901 32.70565437 3.36402901 31.62028503 3.36479187 C30.11816613 3.3624522 28.61604325 3.35272983 27.11401367 3.33618164 C24.83801289 3.31276252 22.56319867 3.31559956 20.28710938 3.32226562 C18.8229098 3.31668224 17.35871511 3.30956823 15.89453125 3.30078125 C15.22339798 3.30169266 14.55226471 3.30260406 13.86079407 3.30354309 C8.93956218 3.23141913 4.70571945 2.31673651 0 1 C0 0.67 0 0.34 0 0 Z " fill="#3C755E" transform="translate(209,376)"/>
<path d="M0 0 C0.33 0.99 0.66 1.98 1 3 C3.01508358 3.73323796 3.01508358 3.73323796 5 4 C4.26950918 6.15255287 3.5149728 8.29695864 2.75 10.4375 C2.33234375 11.63246094 1.9146875 12.82742188 1.484375 14.05859375 C0 17 0 17 -2.046875 17.91015625 C-3.36353132 17.97072244 -4.68195139 18 -6 18 C-5.31583566 13.82423832 -3.98634991 10.11919593 -2.4375 6.1875 C-1.75494141 4.44533203 -1.75494141 4.44533203 -1.05859375 2.66796875 C-0.70925781 1.78753906 -0.35992187 0.90710938 0 0 Z " fill="#2B2B2B" transform="translate(222,278)"/>
<path d="M0 0 C1.7824918 3.33311475 2.48792856 6.24480943 3 10 C2.01 10.66 1.02 11.32 0 12 C-0.68939809 14.32671854 -1.35466922 16.66067594 -2 19 C-2.98028616 20.34789347 -3.97971135 21.68212715 -5 23 C-5.33 24.051875 -5.66 25.10375 -6 26.1875 C-6.33 27.115625 -6.66 28.04375 -7 29 C-7.99 29.33 -8.98 29.66 -10 30 C-6.66666667 20 -3.33333333 10 0 0 Z " fill="#447260" transform="translate(301,230)"/>
<path d="M0 0 C0.99 0 1.98 0 3 0 C3 8.25 3 16.5 3 25 C2.01 25.33 1.02 25.66 0 26 C0 17.42 0 8.84 0 0 Z " fill="#A1B782" transform="translate(157,156)"/>
<path d="M0 0 C0.33 0 0.66 0 1 0 C1 4.29 1 8.58 1 13 C1.99 13 2.98 13 4 13 C3.67 17.62 3.34 22.24 3 27 C1.68 25.68 0.36 24.36 -1 23 C-1.33 23.66 -1.66 24.32 -2 25 C-1.85803484 22.14559413 -1.71154174 19.29153804 -1.5625 16.4375 C-1.52318359 15.63763672 -1.48386719 14.83777344 -1.44335938 14.01367188 C-1.19251844 9.28628494 -0.74678186 4.67523099 0 0 Z " fill="#373737" transform="translate(241,181)"/>
<path d="M0 0 C4.289901 5.107025 6.09471514 11.21656299 8.10546875 17.453125 C9.54410607 21.54915789 11.28746122 25.51351662 13.01171875 29.49609375 C14 32 14 32 14 34 C13.34 34 12.68 34 12 34 C11.71125 33.030625 11.4225 32.06125 11.125 31.0625 C10.35785318 27.89335797 10.35785318 27.89335797 8 27 C7.40644386 24.35139573 7.25790731 21.70802678 7 19 C6.34 19 5.68 19 5 19 C4.49487756 17.39743892 3.99608373 15.79288208 3.5 14.1875 C3.08234375 12.84751953 3.08234375 12.84751953 2.65625 11.48046875 C2 9 2 9 2 6 C0.02 6.99 0.02 6.99 -2 8 C-1.34 5.36 -0.68 2.72 0 0 Z " fill="#426456" transform="translate(162,242)"/>
<path d="M0 0 C0.33 0.99 0.66 1.98 1 3 C0.02248365 4.34990354 -0.98199424 5.68036291 -2 7 C-2.309375 7.969375 -2.61875 8.93875 -2.9375 9.9375 C-4.10855288 13.3128877 -5.74994478 15.2577452 -8 18 C-8.33 18.886875 -8.66 19.77375 -9 20.6875 C-10 23 -10 23 -12.125 24.3125 C-13.053125 24.6528125 -13.053125 24.6528125 -14 25 C-12.66585791 20.33050268 -10.69837289 17.00901115 -8 13 C-6.26141059 9.70113805 -4.61959504 6.3586684 -3 3 C-2.34 3 -1.68 3 -1 3 C-0.67 2.01 -0.34 1.02 0 0 Z " fill="#3F6457" transform="translate(272,299)"/>
<path d="M0 0 C1.4606285 2.64738916 2 3.89448334 2 7 C2.66 7.33 3.32 7.66 4 8 C1.36 12.62 -1.28 17.24 -4 22 C-5.10313617 18.6905915 -4.89941114 17.80517706 -4.00390625 14.55078125 C-3.77509766 13.70322266 -3.54628906 12.85566406 -3.31054688 11.98242188 C-3.06369141 11.10134766 -2.81683594 10.22027344 -2.5625 9.3125 C-2.31951172 8.41982422 -2.07652344 7.52714844 -1.82617188 6.60742188 C-1.22490694 4.40278378 -0.61593343 2.20057655 0 0 Z " fill="#869A5E" transform="translate(253,300)"/>
<path d="M0 0 C0.66 0.33 1.32 0.66 2 1 C1 4 1 4 -1.4375 5.4375 C-4.09448722 6.74661128 -4.09448722 6.74661128 -5 9 C-6.38476638 11.76953276 -8.33894315 12.50721201 -11 14 C-12.75149165 15.58245275 -12.75149165 15.58245275 -14 17 C-14.33 16.01 -14.66 15.02 -15 14 C-13.25311063 12.22600373 -11.50266549 10.45577447 -9.75 8.6875 C-9.25886719 8.18798828 -8.76773438 7.68847656 -8.26171875 7.17382812 C-5.64859804 4.54328661 -3.04342089 2.12314838 0 0 Z " fill="#A9BB83" transform="translate(188,104)"/>
<path d="M0 0 C0.33 0 0.66 0 1 0 C0.7596002 5.76959517 -0.8922948 8.68219336 -4.5078125 13.13671875 C-6.1526024 15.10301881 -6.1526024 15.10301881 -7.75 17.9375 C-9 20 -9 20 -11 21 C-10.01 18.03 -9.02 15.06 -8 12 C-7.34 12 -6.68 12 -6 12 C-5.34 10.02 -4.68 8.04 -4 6 C-3.34 6 -2.68 6 -2 6 C-2 4.68 -2 3.36 -2 2 C-1.34 2 -0.68 2 0 2 C0 1.34 0 0.68 0 0 Z " fill="#3E6958" transform="translate(257,324)"/>
<path d="M0 0 C0.33 0 0.66 0 1 0 C1.08765069 4.02069425 1.14061018 8.0411401 1.1875 12.0625 C1.22520508 13.7630957 1.22520508 13.7630957 1.26367188 15.49804688 C1.3188059 21.80170344 1.07297201 26.44284064 -2 32 C-2.33 32 -2.66 32 -3 32 C-3.26389361 26.32628746 -2.42698499 21.04076995 -1.51171875 15.4453125 C-0.74989415 10.31608123 -0.3540668 5.17123884 0 0 Z " fill="#476B5C" transform="translate(311,176)"/>
<path d="M0 0 C1.82139982 5.46419945 -1.62365066 10.99022923 -4 16 C-5.56199874 18.11775032 -6.90709604 19.38547409 -9 21 C-8.38367054 16.04001528 -6.20164371 12.06328034 -3.9375 7.6875 C-3.37192383 6.57665039 -3.37192383 6.57665039 -2.79492188 5.44335938 C-1.86871843 3.62612478 -0.93509371 1.81267596 0 0 Z " fill="#3C5F51" transform="translate(282,278)"/>
<path d="M0 0 C2.24538034 3.84344382 3.1026736 7.9638019 4.125 12.25 C4.30675781 12.99507813 4.48851562 13.74015625 4.67578125 14.5078125 C5.12147499 16.3375026 5.56131959 18.16861575 6 20 C3.14015453 17.48367951 1.58531178 14.66114447 -0.1875 11.3125 C-0.71730469 10.31863281 -1.24710938 9.32476562 -1.79296875 8.30078125 C-2.19128906 7.54152344 -2.58960938 6.78226562 -3 6 C-2.34 6 -1.68 6 -1 6 C-0.67 4.02 -0.34 2.04 0 0 Z " fill="#9CAF77" transform="translate(207,304)"/>
<path d="M0 0 C1.65 0.33 3.3 0.66 5 1 C4.67 4.3 4.34 7.6 4 11 C2.68 10.67 1.36 10.34 0 10 C-0.66 10.99 -1.32 11.98 -2 13 C-1.85851011 11.3954444 -1.71164314 9.79136233 -1.5625 8.1875 C-1.48128906 7.29417969 -1.40007812 6.40085938 -1.31640625 5.48046875 C-1 3 -1 3 0 0 Z " fill="#363535" transform="translate(236,221)"/>
<path d="M0 0 C0.33 0 0.66 0 1 0 C1.70757095 8.77387981 2.36752652 17.2478303 1 26 C-3.36782419 18.71453832 -1.00138004 8.08256749 0 0 Z " fill="#242E26" transform="translate(150,166)"/>
<path d="M0 0 C0.66 0 1.32 0 2 0 C4.29612756 9.41002278 4.29612756 9.41002278 4 14 C3.34 13.34 2.68 12.68 2 12 C1.01 12.33 0.02 12.66 -1 13 C-0.67 8.71 -0.34 4.42 0 0 Z " fill="#706E6F" transform="translate(245,192)"/>
<path d="M0 0 C-0.33 0.99 -0.66 1.98 -1 3 C-1.69867188 3.09796875 -2.39734375 3.1959375 -3.1171875 3.296875 C-4.02726563 3.44640625 -4.93734375 3.5959375 -5.875 3.75 C-6.77992188 3.88921875 -7.68484375 4.0284375 -8.6171875 4.171875 C-11.16386315 4.7560424 -11.16386315 4.7560424 -12.09375 7.03125 C-12.3928125 7.6809375 -12.691875 8.330625 -13 9 C-16.625 9.75 -16.625 9.75 -20 10 C-17.43244849 7.02235346 -14.50758828 5.58580899 -11 3.875 C-9.4221875 3.09769531 -9.4221875 3.09769531 -7.8125 2.3046875 C-2.84431138 0 -2.84431138 0 0 0 Z " fill="#9FB37B" transform="translate(210,94)"/>
<path d="M0 0 C0.97582031 0.00902344 1.95164063 0.01804687 2.95703125 0.02734375 C3.69308594 0.03894531 4.42914063 0.05054687 5.1875 0.0625 C5.1875 0.7225 5.1875 1.3825 5.1875 2.0625 C6.5075 2.3925 7.8275 2.7225 9.1875 3.0625 C2.2575 3.0625 -4.6725 3.0625 -11.8125 3.0625 C-11.4825 2.4025 -11.1525 1.7425 -10.8125 1.0625 C-7.19111734 0.03976493 -3.74515244 -0.04512232 0 0 Z " fill="#272524" transform="translate(228.8125,87.9375)"/>
<path d="M0 0 C0.33 0.99 0.66 1.98 1 3 C2.32 3.33 3.64 3.66 5 4 C4.01 6.97 3.02 9.94 2 13 C1.67 13 1.34 13 1 13 C1 11.35 1 9.7 1 8 C0.01 8 -0.98 8 -2 8 C-1.125 2.25 -1.125 2.25 0 0 Z " fill="#353535" transform="translate(222,278)"/>
<path d="M0 0 C0.33 0 0.66 0 1 0 C1.27475914 3.99457517 0.64718684 6.16676365 -1.4375 9.5625 C-3.15311205 12.38275115 -4.35882625 14.74991238 -5 18 C-5.66 18 -6.32 18 -7 18 C-6.64866959 8.79514337 -6.64866959 8.79514337 -4.0625 5.625 C-3.0415625 4.820625 -3.0415625 4.820625 -2 4 C-0.76487921 1.86690808 -0.76487921 1.86690808 0 0 Z " fill="#365245" transform="translate(290,260)"/>
<path d="M0 0 C2.04136395 -0.05451714 4.08315856 -0.09302485 6.125 -0.125 C7.83042969 -0.15980469 7.83042969 -0.15980469 9.5703125 -0.1953125 C13.05757767 0.00327891 15.7553862 0.7475199 19 2 C15.05229304 4.63180464 12.26019851 3.8008948 7.8125 3.125 C7.06291016 3.02058594 6.31332031 2.91617187 5.54101562 2.80859375 C3.69250796 2.5495672 1.84602568 2.27616034 0 2 C0 1.34 0 0.68 0 0 Z " fill="#3F735D" transform="translate(188,374)"/>
<path d="M0 0 C0.33 0 0.66 0 1 0 C3.28571429 11.42857143 3.28571429 11.42857143 1 16 C0.34 16 -0.32 16 -1 16 C-1.66 14.35 -2.32 12.7 -3 11 C-2.34 10.67 -1.68 10.34 -1 10 C-0.53248212 7.64400765 -0.53248212 7.64400765 -0.375 4.9375 C-0.30023438 4.01839844 -0.22546875 3.09929687 -0.1484375 2.15234375 C-0.09945312 1.44207031 -0.05046875 0.73179687 0 0 Z " fill="#A2B47D" transform="translate(205,294)"/>
<path d="M0 0 C0.99 0.33 1.98 0.66 3 1 C1.68 4.3 0.36 7.6 -1 11 C-1.66 11 -2.32 11 -3 11 C-3.9765625 4.9453125 -3.9765625 4.9453125 -4 3 C-3.34 2.34 -2.68 1.68 -2 1 C-1.67 1.66 -1.34 2.32 -1 3 C-0.67 2.01 -0.34 1.02 0 0 Z " fill="#B6B6B6" transform="translate(217,285)"/>
<path d="M0 0 C0.66 1.32 1.32 2.64 2 4 C1.01 5.485 1.01 5.485 0 7 C-0.16713569 9.62531524 -0.16713569 9.62531524 0 12 C-0.99 11.67 -1.98 11.34 -3 11 C-2.67 11.99 -2.34 12.98 -2 14 C-3.98 14.99 -3.98 14.99 -6 16 C-4.56176509 10.36691325 -2.45855991 5.26322777 0 0 Z " fill="#2E3320" transform="translate(284,252)"/>
<path d="M0 0 C0.99 0.33 1.98 0.66 3 1 C2.50269348 5.97306516 1.44697666 9.63799813 -1 14 C-1.33 14 -1.66 14 -2 14 C-2.125 9.25 -2.125 9.25 -1 7 C-0.63858045 4.67085177 -0.30300475 2.33746522 0 0 Z " fill="#252425" transform="translate(240,204)"/>
<path d="M0 0 C0.33 0 0.66 0 1 0 C1.87890625 6.15234375 1.87890625 6.15234375 2 8 C1.67 8.33 1.34 8.66 1 9 C0.76712992 10.68183948 0.58735834 12.3712416 0.4375 14.0625 C0.31181641 15.44115234 0.31181641 15.44115234 0.18359375 16.84765625 C0.12300781 17.55792969 0.06242188 18.26820313 0 19 C-2.32222996 15.51665506 -2.14440302 14.64354463 -1.6875 10.625 C-1.58824219 9.68914062 -1.48898438 8.75328125 -1.38671875 7.7890625 C-1.0227734 5.16424453 -0.55124244 2.59131061 0 0 Z " fill="#393F2B" transform="translate(205,188)"/>
<path d="M0 0 C0.66 0.33 1.32 0.66 2 1 C0.16042081 3.48884244 -1.01083592 4.00265369 -4.0625 4.75 C-8.81294278 5.05161541 -13.29169885 4.61577379 -18 4 C-18 3.67 -18 3.34 -18 3 C-16.78441406 2.86722656 -15.56882812 2.73445313 -14.31640625 2.59765625 C-12.73174516 2.41949909 -11.1471111 2.24110125 -9.5625 2.0625 C-8.35883789 1.93198242 -8.35883789 1.93198242 -7.13085938 1.79882812 C-3.24423336 1.69451606 -3.24423336 1.69451606 0 0 Z " fill="#43715D" transform="translate(274,372)"/>
<path d="M0 0 C0.33 0 0.66 0 1 0 C1.1799928 5.21979128 0.97094808 9.07262981 -1 14 C-1.33 14 -1.66 14 -2 14 C-2.05437607 12.41705218 -2.09296271 10.83355744 -2.125 9.25 C-2.14820313 8.36828125 -2.17140625 7.4865625 -2.1953125 6.578125 C-1.99139502 3.8864142 -1.36551721 2.30095026 0 0 Z " fill="#222B17" transform="translate(254,288)"/>
<path d="M0 0 C1.32 0.33 2.64 0.66 4 1 C4.33 3.97 4.66 6.94 5 10 C2 9 2 9 0.8125 6.6875 C0 4 0 4 0 0 Z " fill="#A8BD83" transform="translate(180,259)"/>
<path d="M0 0 C0.33 0 0.66 0 1 0 C1.66 5.94 2.32 11.88 3 18 C-0.75188566 12.99748578 -1.30175732 9.68905281 -0.5625 3.625 C-0.376875 2.42875 -0.19125 1.2325 0 0 Z " fill="#4A7663" transform="translate(149,188)"/>
<path d="M0 0 C0.6875 1.6875 0.6875 1.6875 1 4 C-0.63681917 7.27363833 -2.7567046 10.11576306 -5 13 C-5.66 12.67 -6.32 12.34 -7 12 C-6.20994338 10.56161448 -5.41788955 9.12432585 -4.625 7.6875 C-4.18414062 6.88699219 -3.74328125 6.08648437 -3.2890625 5.26171875 C-2.26486665 3.46472057 -1.14732862 1.72099292 0 0 Z " fill="#2E381A" transform="translate(262,298)"/>
<path d="M0 0 C0.66 0 1.32 0 2 0 C2 0.99 2 1.98 2 3 C2.99 3 3.98 3 5 3 C5 3.66 5 4.32 5 5 C4.34 5 3.68 5 3 5 C3.33 8.3 3.66 11.6 4 15 C2.22413995 11.4482799 1.51372154 9.08232923 0.875 5.25 C0.70742188 4.26515625 0.53984375 3.2803125 0.3671875 2.265625 C0.24601562 1.51796875 0.12484375 0.7703125 0 0 Z " fill="#4B7562" transform="translate(307,137)"/>
<path d="M0 0 C5.66935484 5.37096774 5.66935484 5.37096774 7 9 C7 9.99 7 10.98 7 12 C6.34 12 5.68 12 5 12 C5 11.01 5 10.02 5 9 C4.34 9 3.68 9 3 9 C0 3.375 0 3.375 0 0 Z " fill="#436859" transform="translate(207,333)"/>
<path d="M0 0 C0.66 0 1.32 0 2 0 C2.86646667 1.43011973 3.71781829 2.86940619 4.5625 4.3125 C5.03816406 5.11300781 5.51382813 5.91351563 6.00390625 6.73828125 C7 9 7 9 6 12 C6 11.34 6 10.68 6 10 C5.01 10 4.02 10 3 10 C2.01 6.7 1.02 3.4 0 0 Z " fill="#3F6452" transform="translate(193,310)"/>
<path d="M0 0 C0.66 0 1.32 0 2 0 C2.66 2.64 3.32 5.28 4 8 C3.01 8 2.02 8 1 8 C-1 5 -1 5 -0.625 2.3125 C-0.41875 1.549375 -0.2125 0.78625 0 0 Z " fill="#1D2921" transform="translate(203,320)"/>
<path d="M0 0 C0.66 0.33 1.32 0.66 2 1 C1.54738642 2.43931117 1.08767021 3.87638999 0.625 5.3125 C0.36976563 6.11300781 0.11453125 6.91351563 -0.1484375 7.73828125 C-1 10 -1 10 -3 13 C-2.88490339 11.58249437 -2.75746342 10.16598831 -2.625 8.75 C-2.55539063 7.96109375 -2.48578125 7.1721875 -2.4140625 6.359375 C-1.98492887 3.914123 -1.21399362 2.15163097 0 0 Z " fill="#A5BD80" transform="translate(217,143)"/>
<path d="M0 0 C0.66 1.32 1.32 2.64 2 4 C0.7260411 6.03833424 -0.61061923 8.03852126 -2 10 C-2.66 10 -3.32 10 -4 10 C-3.52449439 8.51965236 -3.04448784 7.04074979 -2.5625 5.5625 C-2.29566406 4.73878906 -2.02882812 3.91507813 -1.75390625 3.06640625 C-1 1 -1 1 0 0 Z " fill="#A0B27F" transform="translate(166,128)"/>
<path d="M0 0 C-0.34879632 3.25543229 -1.02133261 4.01873107 -3.5625 6.25 C-4.366875 6.8275 -5.17125 7.405 -6 8 C-6.33 7.01 -6.66 6.02 -7 5 C-2.25 0 -2.25 0 0 0 Z " fill="#B1BF8E" transform="translate(180,113)"/>
<path d="M0 0 C0.66 0 1.32 0 2 0 C1.67 2.97 1.34 5.94 1 9 C0.34 9 -0.32 9 -1 9 C-1.09765625 2.84765625 -1.09765625 2.84765625 -1 1 C-0.67 0.67 -0.34 0.34 0 0 Z " fill="#A5B883" transform="translate(159,147)"/>
<path d="M0 0 C2.40034102 3.60051153 4.32187705 6.96144535 3.625 11.375 C3.41875 11.91125 3.2125 12.4475 3 13 C3 12.01 3 11.02 3 10 C2.34 10 1.68 10 1 10 C1 9.34 1 8.68 1 8 C0.34 7.67 -0.32 7.34 -1 7 C-0.34 7 0.32 7 1 7 C0.67 4.69 0.34 2.38 0 0 Z " fill="#80925B" transform="translate(297,137)"/>
<path d="M0 0 C1.65 0.33 3.3 0.66 5 1 C4.67 2.32 4.34 3.64 4 5 C3.01 4.67 2.02 4.34 1 4 C0.34 5.65 -0.32 7.3 -1 9 C-2.25541557 5.23375329 -1.37061958 3.62811066 0 0 Z " fill="#454545" transform="translate(230,251)"/>
<path d="M0 0 C1.95216435 3.90432869 2.50639991 6.72213252 3 11 C2.01 11.33 1.02 11.66 0 12 C0 8.04 0 4.08 0 0 Z " fill="#507866" transform="translate(152,208)"/>
<path d="M0 0 C1.65 0 3.3 0 5 0 C3.875 2 3.875 2 2 4 C-1.1875 4.25 -1.1875 4.25 -4 4 C-4 3.34 -4 2.68 -4 2 C-3.01 2 -2.02 2 -1 2 C-0.67 1.34 -0.34 0.68 0 0 Z " fill="#232922" transform="translate(214,84)"/>
<path d="M0 0 C0.66 0.99 1.32 1.98 2 3 C1.67 3.33 1.34 3.66 1 4 C0.95907063 6.33297433 0.95758277 8.66705225 1 11 C0.01 11.33 -0.98 11.66 -2 12 C-1.85904936 10.3745692 -1.71207913 8.74965949 -1.5625 7.125 C-1.48128906 6.22007812 -1.40007812 5.31515625 -1.31640625 4.3828125 C-1 2 -1 2 0 0 Z " fill="#416655" transform="translate(306,212)"/>
<path d="M0 0 C-0.5625 1.9375 -0.5625 1.9375 -2 4 C-5.625 4.75 -5.625 4.75 -9 5 C-4.22727273 0 -4.22727273 0 0 0 Z " fill="#A8B988" transform="translate(199,99)"/>
<path d="M0 0 C4.95 0.99 4.95 0.99 10 2 C10 2.66 10 3.32 10 4 C8.72125 3.896875 7.4425 3.79375 6.125 3.6875 C5.04605469 3.60048828 5.04605469 3.60048828 3.9453125 3.51171875 C2 3 2 3 0 0 Z " fill="#42745F" transform="translate(166,368)"/>
<path d="M0 0 C0.33 0.66 0.66 1.32 1 2 C-0.65 4.31 -2.3 6.62 -4 9 C-4.33 7.68 -4.66 6.36 -5 5 C-4.360625 4.731875 -3.72125 4.46375 -3.0625 4.1875 C-0.66868314 3.11332248 -0.66868314 3.11332248 0 0 Z " fill="#3F6F5C" transform="translate(278,290)"/>
<path d="M0 0 C1.125 1.6875 1.125 1.6875 2 4 C1.25 6.6875 1.25 6.6875 0 9 C-0.99 9.495 -0.99 9.495 -2 10 C-1.54177532 6.53058454 -1.10868317 3.32604951 0 0 Z " fill="#436559" transform="translate(301,230)"/>
<path d="M0 0 C0.99 0.495 0.99 0.495 2 1 C2.6328125 3.06640625 2.6328125 3.06640625 3.125 5.5625 C3.29257813 6.38878906 3.46015625 7.21507812 3.6328125 8.06640625 C3.75398437 8.70449219 3.87515625 9.34257812 4 10 C0.57563792 7.0163065 0.42218506 4.4751616 0 0 Z " fill="#8A9475" transform="translate(209,314)"/>
<path d="M0 0 C0.33 0.66 0.66 1.32 1 2 C1.66 2.33 2.32 2.66 3 3 C1.68 5.31 0.36 7.62 -1 10 C-2.31223496 6.06329512 -1.24296256 3.87511856 0 0 Z " fill="#7C8057" transform="translate(250,312)"/>
<path d="M0 0 C0.33 1.32 0.66 2.64 1 4 C-0.65 5.32 -2.3 6.64 -4 8 C-2.25 2.25 -2.25 2.25 0 0 Z " fill="#354B42" transform="translate(239,352)"/>
</svg>
